<?xml version="1.0" encoding="UTF-8"?>
<svg width="197px" height="30px" viewBox="0 0 197 30" version="1.1" xmlns="http://www.w3.org/2000/svg" xmlns:xlink="http://www.w3.org/1999/xlink">
    <!-- Generator: sketchtool 53 (72520) - https://sketchapp.com -->
    <title>0C17B236-1F33-43B4-8669-5E4CA67B9EE5</title>
    <desc>Created with sketchtool.</desc>
    <defs>
        <polygon id="path-1" points="0 0.229342105 28.4632945 0.229342105 28.4632945 29.9999605 0 29.9999605"></polygon>
    </defs>
    <g id="Symbols" stroke="none" stroke-width="1" fill="none" fill-rule="evenodd">
        <g id="atomo-/-icono-/-chanel-/-regular-/-mobile">
            <g id="Group-9">
                <polygon id="Fill-1" fill="#FFFFFF" points="41.1240867 11.342501 41.1240867 0.681818182 35.4628975 0.681818182 35.4628975 29.9919751 41.1240867 29.9919751 41.1240867 17.4839595 55.0091858 17.4839595 55.0091858 30 60.6961131 30 60.6961131 0.681818182 54.992555 0.681818182 54.992555 11.3336736"></polygon>
                <polygon id="Fill-2" fill="#FFFFFF" points="161.654835 0.681818182 141.169611 0.681818182 141.169611 30 162.992933 30 162.992933 24.3717537 146.992051 24.3717537 146.992051 18.0671223 160.009671 18.0671223 160.009671 12.1482511 146.992051 12.1482511 146.992051 6.33695935 161.636726 6.33695935"></polygon>
                <polygon id="Fill-3" fill="#FFFFFF" points="126.287762 30 130.939929 30 130.939929 0.681818182 125.197536 0.681818182 125.197536 18.1852043 112.577466 0.681818182 105.024735 0.681818182 105.024735 30 110.648048 30 110.648048 8.25295509"></polygon>
                <path d="M86.7606176,0.681818182 L79.022681,0.681818182 L66.1519435,30 L72.2250596,30 L75.0835547,23.4984096 L90.2953965,23.4984096 L93.1700971,30 L99.5689046,30 L86.7606176,0.681818182 Z M77.6752516,17.6319629 L82.7353253,6.00746942 L87.7645691,17.6319629 L77.6752516,17.6319629 Z" id="Fill-4" fill="#FFFFFF"></path>
                <polygon id="Fill-5" fill="#FFFFFF" points="171.858657 0.689443092 171.858657 30 193 30 193 24.3736187 177.741673 24.3736187 177.741673 0.681818182"></polygon>
                <g id="Group-8">
                    <mask id="mask-2" fill="white">
                        <use xlink:href="#path-1"></use>
                    </mask>
                    <g id="Clip-7"></g>
                    <path d="M28.4632945,21.6623289 C26.0170933,26.5890395 20.90947,29.9999605 15.001033,29.9999605 C6.71601355,29.9999605 0,23.3348289 0,15.1140395 C0,6.89325 6.71601355,0.229302632 15.001033,0.229302632 C20.6492951,0.229302632 25.5651687,3.30430263 28.1235554,7.88048684 L23.1838124,10.6716711 C21.6024741,7.79917105 18.534081,5.94272368 15.0042155,5.94272368 C9.85760571,5.94272368 5.82449676,10.0136447 5.82449676,15.1195658 C5.82449676,20.2254868 9.85760571,24.2964079 15.0042155,24.2964079 C18.7158852,24.2964079 21.8495209,22.1210132 23.3465212,19.0049605 L28.4632945,21.6623289 Z" id="Fill-6" fill="#FFFFFF" mask="url(#mask-2)"></path>
                </g>
            </g>
        </g>
    </g>
</svg>