<?xml version="1.0" encoding="utf-8"?>
<!-- Generator: Adobe Illustrator 19.2.1, SVG Export Plug-In . SVG Version: 6.00 Build 0)  -->
<svg version="1.1" id="Layer_1" xmlns="http://www.w3.org/2000/svg" xmlns:xlink="http://www.w3.org/1999/xlink" x="0px" y="0px"
	 viewBox="0 0 517 250" style="enable-background:new 0 0 517 250;" xml:space="preserve">
<style type="text/css">
	.st0{fill:#231F20;}
</style>
<g>
	<g>
		<g>
			<path class="st0" d="M102.7,17.8c-0.8,0-1.7,0.2-2.7,0.5c-1,0.3-2,0.8-2.8,1.3c-1.1,0.7-2,1.5-2.6,2.4c-0.7,0.9-1.2,2.1-1.7,3.7
				c-2.2,7.2-4.8,15.6-7.7,25.1c-2.9,9.6-6.1,19.8-9.5,30.6h-4.3L54.6,30.5L37.3,81.4h-4.1c-3.1-10.9-6.3-22.2-9.6-33.8
				c-3.3-11.7-5.5-19.5-6.6-23.5c-0.3-1-0.7-1.8-1.2-2.6c-0.5-0.7-1.3-1.4-2.2-2c-0.8-0.5-1.7-0.9-2.7-1.2c-1-0.3-2-0.4-2.8-0.5
				v-3.3h26.9v3.3c-2.4,0.1-4.4,0.4-6,0.7c-1.7,0.3-2.5,0.9-2.5,1.7c0,0.3,0,0.7,0.1,1.2c0.1,0.5,0.2,0.9,0.2,1.2
				c0.7,2.7,2,7.3,3.8,13.6c1.8,6.3,4.5,15.7,8.1,28.3l16.5-49.2h4.6l16.7,50.2c2.2-7.7,4.2-14.5,5.8-20.2c1.6-5.8,3-10.7,4-14.8
				c0.7-2.9,1.2-4.9,1.4-5.9c0.2-1.1,0.3-2,0.3-2.7c0-1.1-0.7-1.9-2.2-2.7c-1.4-0.7-3.8-1.2-7-1.4v-3.3h24V17.8z"/>
			<path class="st0" d="M136.6,80.6h-29.8v-3.3c0.8-0.1,2.1-0.2,3.6-0.3s2.7-0.3,3.4-0.6c1-0.4,1.8-1,2.2-1.7
				c0.5-0.7,0.7-1.7,0.7-2.9V24c0-1.1-0.2-2-0.5-2.7c-0.3-0.7-1.1-1.3-2.4-1.8c-0.9-0.4-2.1-0.7-3.5-1c-1.4-0.3-2.6-0.5-3.5-0.6
				v-3.3h29.8v3.3c-1,0-2.1,0.1-3.4,0.3c-1.3,0.2-2.5,0.5-3.5,0.8c-1.2,0.4-2,1-2.4,1.8c-0.4,0.8-0.6,1.8-0.6,2.8v47.8
				c0,1,0.2,1.9,0.7,2.7c0.4,0.8,1.2,1.4,2.3,1.9c0.7,0.2,1.7,0.5,3.2,0.8c1.5,0.3,2.7,0.5,3.8,0.5V80.6z"/>
			<path class="st0" d="M197.8,60.9l-1.4,19.7h-51.7v-3.3c0.7-0.1,1.8-0.2,3.2-0.3c1.4-0.2,2.4-0.4,3-0.6c0.9-0.4,1.6-1,2-1.8
				c0.4-0.8,0.6-1.8,0.6-3V24.3c0-1.1-0.2-2-0.5-2.8c-0.4-0.8-1.1-1.5-2.1-2c-0.7-0.4-1.7-0.7-3-1.1c-1.3-0.4-2.4-0.6-3.2-0.6v-3.3
				h27.9v3.3c-0.9,0-2,0.2-3.4,0.5c-1.4,0.3-2.4,0.5-3,0.7c-1.1,0.4-1.8,1-2.2,1.9c-0.4,0.9-0.6,1.9-0.6,2.9v44.4
				c0,2,0.1,3.6,0.3,4.8c0.2,1.1,0.7,2,1.4,2.6c0.7,0.6,1.8,0.9,3.2,1.1c1.4,0.2,3.4,0.3,5.9,0.3c1.1,0,2.3,0,3.6-0.1
				c1.2-0.1,2.4-0.2,3.5-0.4c1.1-0.2,2.1-0.4,3-0.8c0.9-0.3,1.6-0.7,2-1.2c1.3-1.4,2.8-3.6,4.4-6.5c1.7-2.9,2.9-5.3,3.5-7.1H197.8z"
				/>
			<path class="st0" d="M256.6,60.9l-1.4,19.7h-51.7v-3.3c0.7-0.1,1.8-0.2,3.2-0.3c1.4-0.2,2.4-0.4,3-0.6c0.9-0.4,1.6-1,2-1.8
				c0.4-0.8,0.6-1.8,0.6-3V24.3c0-1.1-0.2-2-0.5-2.8c-0.4-0.8-1.1-1.5-2.1-2c-0.7-0.4-1.7-0.7-3-1.1c-1.3-0.4-2.4-0.6-3.2-0.6v-3.3
				h27.9v3.3c-0.9,0-2,0.2-3.4,0.5c-1.4,0.3-2.4,0.5-3,0.7c-1.1,0.4-1.8,1-2.2,1.9c-0.4,0.9-0.6,1.9-0.6,2.9v44.4
				c0,2,0.1,3.6,0.3,4.8c0.2,1.1,0.7,2,1.4,2.6c0.7,0.6,1.8,0.9,3.2,1.1c1.4,0.2,3.4,0.3,5.9,0.3c1.1,0,2.3,0,3.6-0.1
				c1.2-0.1,2.4-0.2,3.5-0.4c1.1-0.2,2.1-0.4,3-0.8c0.9-0.3,1.6-0.7,2-1.2c1.3-1.4,2.8-3.6,4.4-6.5c1.7-2.9,2.9-5.3,3.5-7.1H256.6z"
				/>
			<path class="st0" d="M291.8,80.6H262v-3.3c0.8-0.1,2.1-0.2,3.6-0.3c1.6-0.1,2.7-0.3,3.4-0.6c1-0.4,1.8-1,2.2-1.7
				c0.5-0.7,0.7-1.7,0.7-2.9V24c0-1.1-0.2-2-0.5-2.7c-0.3-0.7-1.1-1.3-2.4-1.8c-0.9-0.4-2.1-0.7-3.5-1c-1.4-0.3-2.6-0.5-3.5-0.6
				v-3.3h29.8v3.3c-1,0-2.1,0.1-3.4,0.3c-1.3,0.2-2.5,0.5-3.5,0.8c-1.2,0.4-2,1-2.4,1.8c-0.4,0.8-0.6,1.8-0.6,2.8v47.8
				c0,1,0.2,1.9,0.7,2.7c0.5,0.8,1.2,1.4,2.3,1.9c0.7,0.2,1.7,0.5,3.2,0.8c1.5,0.3,2.7,0.5,3.8,0.5V80.6z"/>
			<path class="st0" d="M366.9,80.6h-27.5v-3.3c2.4-0.2,4.4-0.5,6-0.9c1.6-0.5,2.4-1,2.4-1.7c0-0.3,0-0.6-0.1-1
				c-0.1-0.4-0.2-0.8-0.3-1.1L342,57.7h-23.2c-0.9,2.2-1.6,4.1-2.1,5.7c-0.5,1.6-1,3.1-1.5,4.5c-0.4,1.3-0.7,2.4-0.8,3.3
				c-0.2,0.8-0.2,1.5-0.2,2c0,1.2,1,2.2,2.9,2.9c2,0.7,4.2,1.1,6.6,1.2v3.3h-24.9v-3.3c0.8-0.1,1.8-0.2,3-0.5c1.2-0.3,2.2-0.7,3-1.2
				c1.2-0.8,2.2-1.7,2.9-2.6c0.7-0.9,1.4-2.2,2-3.8c3.3-8.3,7-17.6,11-28c4-10.3,7.6-19.6,10.7-27.6h3.7l22,57
				c0.5,1.2,1,2.2,1.6,2.9c0.6,0.7,1.4,1.5,2.5,2.2c0.7,0.4,1.6,0.8,2.8,1.1c1.1,0.3,2.1,0.5,2.9,0.5V80.6z M340.3,53.6l-10-25.7
				l-9.9,25.7H340.3z"/>
			<path class="st0" d="M454.6,80.6h-29.2v-3.3c1.1,0,2.4-0.1,4.1-0.3c1.7-0.2,2.8-0.5,3.4-0.8c1-0.6,1.7-1.3,2.1-2
				c0.4-0.8,0.7-1.7,0.7-2.9V23.2H435l-22.6,56.3h-2.3L388.6,22H388v39.5c0,3.8,0.2,6.7,0.7,8.7c0.5,2,1.2,3.4,2.2,4.3
				c0.7,0.7,2.1,1.3,4.2,1.9c2.1,0.6,3.5,0.9,4.2,0.9v3.3h-26.7v-3.3c1.4-0.1,2.9-0.4,4.4-0.7c1.5-0.3,2.7-0.9,3.6-1.5
				c1.1-0.9,1.8-2.2,2.2-4c0.4-1.8,0.6-4.8,0.6-9V28.2c0-2-0.2-3.6-0.7-4.8c-0.5-1.2-1.1-2.3-2-3c-1-0.8-2.1-1.5-3.5-1.9
				c-1.4-0.4-2.8-0.6-4.1-0.7v-3.3h22.5l18.9,49.6l16.2-41.5c0.6-1.5,1.1-3.1,1.5-4.8c0.4-1.7,0.6-2.8,0.7-3.3h21.6v3.3
				c-0.9,0-2,0.2-3.3,0.4c-1.4,0.2-2.3,0.5-3,0.7c-1.1,0.4-1.8,1-2.1,1.9c-0.4,0.9-0.6,1.8-0.6,2.8v47.7c0,1.1,0.2,2,0.6,2.7
				c0.4,0.7,1.1,1.4,2.1,2c0.6,0.3,1.6,0.6,3,0.9c1.4,0.3,2.6,0.4,3.4,0.4V80.6z"/>
			<path class="st0" d="M503.9,50.3c1.4,1.6,2.4,3.3,3.1,5.1c0.7,1.8,1,4,1,6.5c0,5.8-2.2,10.7-6.5,14.4c-4.3,3.8-9.7,5.7-16.1,5.7
				c-3,0-5.9-0.5-8.9-1.4c-3-0.9-5.5-2-7.6-3.3l-2,3.4h-3.7L462.6,58h3.8c0.8,2.8,1.7,5.3,2.7,7.6c1,2.3,2.4,4.4,4.1,6.3
				c1.6,1.8,3.5,3.3,5.7,4.4c2.2,1.1,4.7,1.6,7.5,1.6c2.1,0,4-0.3,5.6-0.8c1.6-0.6,2.9-1.4,3.9-2.4c1-1,1.7-2.2,2.2-3.6
				c0.5-1.4,0.7-3,0.7-4.8c0-2.6-0.7-5.1-2.2-7.4c-1.5-2.3-3.7-4-6.7-5.2c-2-0.8-4.3-1.7-6.9-2.7c-2.6-1-4.9-1.9-6.8-2.8
				c-3.7-1.7-6.6-3.9-8.7-6.6c-2.1-2.7-3.1-6.3-3.1-10.6c0-2.5,0.5-4.9,1.5-7c1-2.2,2.5-4.1,4.4-5.8c1.8-1.6,3.9-2.9,6.4-3.8
				c2.5-0.9,5-1.4,7.7-1.4c3,0,5.8,0.5,8.2,1.4c2.4,0.9,4.6,2,6.6,3.3l1.9-3.2h3.7l0.4,21.9h-3.8c-0.7-2.5-1.5-4.9-2.3-7.2
				c-0.9-2.3-2-4.4-3.3-6.2c-1.3-1.8-3-3.2-4.9-4.3c-1.9-1.1-4.3-1.6-7.1-1.6c-3,0-5.5,0.9-7.5,2.8c-2.1,1.9-3.1,4.2-3.1,6.9
				c0,2.9,0.7,5.2,2,7.1c1.3,1.9,3.3,3.4,5.8,4.6c2.3,1.1,4.5,2,6.7,2.8c2.2,0.8,4.3,1.6,6.4,2.5c1.9,0.8,3.7,1.7,5.4,2.7
				C501.1,47.7,502.6,48.9,503.9,50.3z"/>
		</g>
		<g>
			<path class="st0" d="M107.6,142c1.4,1.6,2.4,3.3,3.1,5.1c0.7,1.8,1,4,1,6.5c0,5.8-2.2,10.7-6.5,14.4c-4.3,3.8-9.7,5.7-16.1,5.7
				c-3,0-5.9-0.5-8.9-1.4c-3-0.9-5.5-2-7.6-3.3l-2,3.4h-3.7l-0.7-22.6h3.8c0.8,2.8,1.7,5.3,2.7,7.6c1,2.3,2.4,4.4,4.1,6.3
				c1.6,1.8,3.5,3.3,5.7,4.4c2.2,1.1,4.7,1.6,7.5,1.6c2.1,0,4-0.3,5.6-0.8c1.6-0.6,2.9-1.4,3.9-2.4c1-1,1.7-2.2,2.2-3.6
				c0.5-1.4,0.7-3,0.7-4.8c0-2.6-0.7-5.1-2.2-7.4c-1.5-2.3-3.7-4-6.7-5.2c-2-0.8-4.3-1.7-6.9-2.7c-2.6-1-4.9-1.9-6.8-2.8
				c-3.7-1.7-6.6-3.9-8.7-6.6c-2.1-2.7-3.1-6.3-3.1-10.6c0-2.5,0.5-4.9,1.5-7c1-2.2,2.5-4.1,4.4-5.8c1.8-1.6,3.9-2.9,6.4-3.8
				c2.5-0.9,5-1.4,7.7-1.4c3,0,5.8,0.5,8.2,1.4c2.4,0.9,4.6,2,6.6,3.3l1.9-3.2h3.7l0.4,21.9h-3.8c-0.7-2.5-1.5-4.9-2.3-7.2
				c-0.9-2.3-2-4.4-3.3-6.2c-1.3-1.8-3-3.2-4.9-4.3c-1.9-1.1-4.3-1.6-7.1-1.6c-3,0-5.5,0.9-7.5,2.8c-2.1,1.9-3.1,4.2-3.1,6.9
				c0,2.9,0.7,5.2,2,7.1c1.3,1.9,3.3,3.4,5.8,4.6c2.3,1.1,4.5,2,6.7,2.8c2.2,0.8,4.3,1.6,6.4,2.5c1.9,0.8,3.7,1.7,5.4,2.8
				C104.8,139.5,106.3,140.7,107.6,142z"/>
			<path class="st0" d="M172.4,114.1c2.9,3,5.2,6.7,6.8,11c1.6,4.3,2.5,9.1,2.5,14.3c0,5.2-0.8,10-2.5,14.3c-1.7,4.3-4,7.9-7,10.9
				c-2.9,3-6.2,5.3-10.1,6.9c-3.8,1.6-7.9,2.4-12.2,2.4c-4.6,0-8.8-0.9-12.7-2.6c-3.9-1.7-7.2-4.1-10-7.2c-2.8-3-5-6.7-6.6-11
				c-1.6-4.3-2.4-8.9-2.4-13.8c0-5.4,0.8-10.2,2.5-14.4c1.7-4.2,4-7.8,6.9-10.9c2.9-3,6.3-5.4,10.2-7c3.9-1.6,7.9-2.4,12.1-2.4
				c4.4,0,8.5,0.8,12.4,2.5C166.2,108.8,169.5,111.1,172.4,114.1z M165.4,161c1.7-2.8,3-6,3.8-9.6c0.8-3.6,1.2-7.6,1.2-12
				c0-4.5-0.4-8.7-1.3-12.5c-0.9-3.8-2.2-7-3.9-9.7c-1.7-2.6-3.9-4.7-6.4-6.2c-2.6-1.5-5.5-2.2-8.9-2.2c-3.7,0-6.9,0.9-9.5,2.6
				c-2.6,1.7-4.7,4-6.4,6.8c-1.6,2.7-2.7,5.9-3.5,9.6c-0.8,3.7-1.1,7.5-1.1,11.6c0,4.5,0.4,8.5,1.2,12.1c0.8,3.6,2.1,6.8,3.8,9.6
				c1.7,2.7,3.8,4.9,6.3,6.4c2.5,1.5,5.6,2.3,9.1,2.3c3.3,0,6.3-0.8,9-2.3C161.6,165.9,163.7,163.8,165.4,161z"/>
			<path class="st0" d="M252.6,109.6c-0.9,0-2.2,0.3-4,0.7c-1.8,0.5-3.1,0.9-3.9,1.4c-1.1,0.8-1.9,2.3-2.3,4.5
				c-0.4,2.2-0.6,5-0.6,8.4V173h-4.1l-40.1-54.1V153c0,3.8,0.2,6.8,0.7,8.8c0.5,2,1.2,3.5,2.2,4.4c0.7,0.7,2.2,1.3,4.4,1.9
				c2.2,0.6,3.7,0.9,4.4,0.9v3.3h-27.1v-3.3c0.8-0.1,2.3-0.4,4.2-0.9c2-0.5,3.2-1,3.7-1.5c1.1-0.9,1.8-2.2,2.2-4
				c0.4-1.8,0.6-4.8,0.6-9.2V121c0-1.4-0.2-2.9-0.7-4.3c-0.5-1.4-1.2-2.5-2-3.3c-1.1-1-2.6-1.9-4.5-2.6s-3.5-1.1-4.6-1.2v-3.3h18.9
				l37.2,50.4v-31.4c0-3.8-0.2-6.8-0.7-8.9c-0.5-2.1-1.2-3.4-2.1-4.1c-0.9-0.6-2.3-1.2-4.3-1.7c-2-0.6-3.5-0.9-4.5-0.9v-3.3h26.9
				V109.6z"/>
			<path class="st0" d="M306.2,114.1c2.9,3,5.2,6.7,6.8,11c1.6,4.3,2.5,9.1,2.5,14.3c0,5.2-0.8,10-2.5,14.3c-1.7,4.3-4,7.9-7,10.9
				c-2.9,3-6.2,5.3-10.1,6.9c-3.8,1.6-7.9,2.4-12.2,2.4c-4.6,0-8.8-0.9-12.7-2.6c-3.9-1.7-7.2-4.1-10-7.2c-2.8-3-5-6.7-6.6-11
				c-1.6-4.3-2.4-8.9-2.4-13.8c0-5.4,0.8-10.2,2.5-14.4c1.7-4.2,4-7.8,6.9-10.9c2.9-3,6.3-5.4,10.2-7c3.9-1.6,7.9-2.4,12.1-2.4
				c4.4,0,8.5,0.8,12.4,2.5C300,108.8,303.3,111.1,306.2,114.1z M299.2,161c1.7-2.8,3-6,3.8-9.6c0.8-3.6,1.2-7.6,1.2-12
				c0-4.5-0.4-8.7-1.3-12.5c-0.9-3.8-2.2-7-3.9-9.7c-1.7-2.6-3.9-4.7-6.4-6.2c-2.6-1.5-5.5-2.2-8.9-2.2c-3.7,0-6.9,0.9-9.5,2.6
				c-2.6,1.7-4.7,4-6.4,6.8c-1.6,2.7-2.7,5.9-3.5,9.6c-0.8,3.7-1.1,7.5-1.1,11.6c0,4.5,0.4,8.5,1.2,12.1c0.8,3.6,2.1,6.8,3.8,9.6
				c1.7,2.7,3.8,4.9,6.3,6.4c2.5,1.5,5.6,2.3,9.1,2.3c3.3,0,6.3-0.8,9-2.3C295.4,165.9,297.5,163.8,299.2,161z"/>
			<path class="st0" d="M397.8,172.4h-29.2v-3.3c1.1,0,2.4-0.1,4.1-0.3c1.7-0.2,2.8-0.5,3.4-0.8c1-0.6,1.7-1.3,2.1-2
				c0.5-0.8,0.7-1.7,0.7-2.9V115h-0.7l-22.6,56.3h-2.3l-21.5-57.5h-0.6v39.5c0,3.8,0.2,6.7,0.7,8.7c0.5,2,1.2,3.4,2.2,4.3
				c0.7,0.7,2.1,1.3,4.2,1.9c2.1,0.6,3.5,0.9,4.2,0.9v3.3h-26.7v-3.3c1.4-0.1,2.9-0.4,4.4-0.7c1.5-0.3,2.7-0.9,3.6-1.5
				c1.1-0.9,1.8-2.2,2.2-4c0.4-1.8,0.6-4.8,0.6-9V120c0-2-0.2-3.6-0.7-4.8c-0.5-1.2-1.1-2.3-2-3c-1-0.8-2.1-1.5-3.5-1.9
				c-1.4-0.4-2.8-0.6-4.1-0.7v-3.3h22.5l18.9,49.6l16.2-41.5c0.6-1.5,1.1-3.1,1.5-4.8c0.4-1.7,0.6-2.8,0.7-3.3h21.6v3.3
				c-0.9,0-2,0.2-3.3,0.4c-1.4,0.2-2.3,0.5-3,0.7c-1.1,0.4-1.8,1-2.1,1.9c-0.4,0.9-0.6,1.8-0.6,2.8v47.7c0,1.1,0.2,2,0.6,2.8
				c0.4,0.7,1.1,1.4,2.1,2c0.6,0.3,1.6,0.6,3,0.9c1.4,0.3,2.6,0.4,3.4,0.4V172.4z"/>
			<path class="st0" d="M470.2,172.4h-27.5v-3.3c2.4-0.2,4.4-0.5,6-0.9c1.6-0.5,2.4-1,2.4-1.7c0-0.3,0-0.6-0.1-1
				c-0.1-0.4-0.2-0.8-0.3-1.1l-5.5-14.8h-23.2c-0.9,2.2-1.6,4.1-2.1,5.7c-0.5,1.6-1,3.1-1.5,4.5c-0.4,1.3-0.7,2.4-0.8,3.3
				c-0.2,0.8-0.2,1.5-0.2,2c0,1.2,1,2.2,2.9,2.9c2,0.7,4.2,1.1,6.6,1.2v3.3H402v-3.3c0.8-0.1,1.8-0.2,3-0.5c1.2-0.3,2.2-0.7,3-1.2
				c1.2-0.8,2.2-1.7,2.9-2.6c0.7-0.9,1.3-2.2,2-3.8c3.3-8.3,7-17.6,11-28c4-10.3,7.6-19.6,10.7-27.6h3.7l22,57
				c0.5,1.2,1,2.2,1.6,2.9c0.6,0.7,1.4,1.5,2.5,2.2c0.7,0.4,1.6,0.8,2.8,1.1c1.1,0.3,2.1,0.5,2.9,0.5V172.4z M443.6,145.4l-10-25.7
				l-9.9,25.7H443.6z"/>
		</g>
	</g>
	<rect x="100.1" y="197.3" class="st0" width="315.8" height="2.1"/>
	<g>
		<g>
			<path class="st0" d="M158.2,225.6c-0.3-0.2-0.6-0.4-1-0.7c-0.6-0.4-1.9-1.2-3.8-1.2c-2.2,0-4.5,1.1-5.8,2.8
				c-1.3,1.7-1.4,3.7-1.4,4.5c0,0.5,0.1,1.9,0.7,3.2c1.1,2.5,3.8,4,6.5,4c1.9,0,3.2-0.7,4.7-1.8v3.2c-0.9,0.4-2.4,1.2-4.8,1.2
				c-1.2,0-4-0.2-6.6-2.4c-1.2-1-3.3-3.4-3.3-7.5c0-2.5,0.8-4.9,2.4-6.6c1.9-2,4.8-3.3,7.6-3.3c1.8,0,3.1,0.5,4.8,1.2L158.2,225.6z"
				/>
			<path class="st0" d="M185.9,240.6h-3l-1.9-4.7h-8.3l-2.2,4.6h-3l9.7-20.3L185.9,240.6z M173.8,233.5h6.1l-2.9-6.8L173.8,233.5z"
				/>
			<path class="st0" d="M199.2,221.4V238h5.9v2.6h-8.6v-19.2H199.2z"/>
			<path class="st0" d="M221.9,221.4v19.2h-2.8v-19.2H221.9z"/>
			<path class="st0" d="M246.1,221.4v2.7h-6.7v4.7h6.6v2.6h-6.7v9.2h-2.8v-19.2H246.1z"/>
			<path class="st0" d="M258.9,224.1c1.9-2,4.6-3.1,7.3-3.1c3.2,0,5.5,1.5,6.4,2.2c2.3,1.8,3.7,4.7,3.7,7.7c0,0.7-0.1,2.1-0.8,3.7
				c-1.6,3.8-5.2,6.1-9.3,6.1c-3.2,0-5.6-1.6-6.5-2.3c-2.3-1.9-3.6-4.8-3.5-7.9C256.2,228.3,257.2,225.9,258.9,224.1z M260.4,235.4
				c1.4,1.7,3.5,2.7,5.7,2.7c0.8,0,2.7-0.1,4.5-1.5c1.7-1.3,2.8-3.4,2.8-5.6c0-1.4-0.4-2.5-0.6-2.9c-1.2-2.7-3.8-4.3-6.7-4.3
				c-1.6,0-3.2,0.5-4.5,1.5c-0.8,0.6-2.6,2.4-2.8,5.3C258.8,232.3,259.4,234.1,260.4,235.4z"/>
			<path class="st0" d="M296.5,240.6l-5.9-8.2h-1.2v8.2h-2.7v-19.2h5.6c1.3,0.1,2.6,0.2,3.7,1c1.4,1,2,2.8,2,4.4
				c0,0.8-0.2,3.4-2.4,4.8c-0.4,0.3-0.8,0.4-1.7,0.7c0.9,1.3,1.8,2.6,2.7,3.8c0.7,1,1.4,1.9,2.1,2.8c0.4,0.6,0.8,1.2,1.2,1.7H296.5z
				 M289.5,224v6h2.2c1.3-0.1,2.3-0.2,3-1.3c0.2-0.3,0.5-1,0.5-2c0-0.3-0.1-1.5-0.9-2.2c-0.6-0.5-1.4-0.5-2.1-0.6H289.5z"/>
			<path class="st0" d="M324.4,221.4h2.8v19.9c-2.2-2.2-4.4-4.4-6.6-6.7c-1.3-1.3-2.6-2.6-3.9-4c-1.3-1.4-2.6-2.8-3.9-4.3
				c0.1,0.9,0.1,1.9,0.2,2.8c0,0.8,0,1.6,0.1,2.5v8.9h-2.8v-20.5c2.7,2.7,5.4,5.3,8,8c2.1,2.2,4.2,4.4,6.3,6.6
				c-0.1-0.6-0.1-1.2-0.1-1.8c0-0.5,0-1.1-0.1-1.6V221.4z"/>
			<path class="st0" d="M343.7,221.4v19.2h-2.8v-19.2H343.7z"/>
			<path class="st0" d="M372.6,240.6h-3l-1.9-4.7h-8.3l-2.2,4.6h-3l9.7-20.3L372.6,240.6z M360.5,233.5h6.1l-2.9-6.8L360.5,233.5z"
				/>
		</g>
	</g>
</g>
</svg>
