<svg xmlns="http://www.w3.org/2000/svg" width="196" height="172" viewBox="0 0 196 172">
    <g fill="none" fill-rule="evenodd">
        <g fill-rule="nonzero">
            <path fill="#E10098" d="M101.056 34H2.944C1.318 34 0 35.305 0 36.916v132.168C0 170.695 1.318 172 2.944 172h98.112c1.626 0 2.944-1.305 2.944-2.916V36.916c0-1.61-1.318-2.916-2.944-2.916z"/>
            <path fill="#FFF" fill-opacity=".32" d="M41 34h6v138h-6zM54 34h6v138h-6zM66 34h6v138h-6zM78 34h6v138h-6z"/>
            <path fill="#CCD1D9" d="M54.88 34V23.611c0-9.894 8.353-17.944 18.62-17.944 10.267 0 18.62 8.05 18.62 17.944V34H98V23.611C98 10.591 87.01 0 73.5 0S49 10.592 49 23.611V34h5.88z"/>
            <path fill="#C40285" d="M101 34H89c1.657 0 3 1.305 3 2.916v132.168c0 1.611-1.343 2.916-3 2.916h12c1.657 0 3-1.305 3-2.916V36.916c0-1.61-1.343-2.916-3-2.916z"/>
            <path fill="#A0006C" d="M119.261 34H101c1.513 0 2.739 1.305 2.739 2.916v132.168c0 1.611-1.226 2.916-2.739 2.916h18.261c1.513 0 2.739-1.305 2.739-2.916V36.916c0-1.61-1.226-2.916-2.739-2.916z"/>
            <path fill="#E10098" d="M175 63.92c0-1.613-1.252-2.92-2.797-2.92h-49.406v108.075c0 1.614-1.253 2.921-2.797 2.921l52.203.004c1.545 0 2.797-1.307 2.797-2.92 0-.028-.003-.055-.004-.082 0-.028.004-.054.004-.082V63.921z"/>
            <path fill="#FFF" fill-opacity=".32" d="M126 61h6v111h-6zM138 61h6v111h-6z"/>
            <path fill="#A0006C" d="M196 63.92c0-1.613-1.226-2.92-2.74-2.92H175c1.513 0 2.74 1.307 2.74 2.92v104.996c0 .028-.004.054-.005.082 0 .027.004.054.004.081 0 1.604-1.212 2.905-2.714 2.92l18.236.001c1.513 0 2.739-1.307 2.739-2.92 0-.028-.003-.055-.004-.082 0-.028.004-.054.004-.082V63.921z"/>
            <path fill="#C40285" d="M178 63.92c0-1.613-1.343-2.92-3-2.92h-12c1.657 0 3 1.307 3 2.92v104.996c0 .028-.004.054-.005.082.001.027.005.054.005.081 0 1.608-1.334 2.912-2.983 2.92L175 172c1.657 0 3-1.307 3-2.92 0-.028-.004-.055-.004-.082 0-.028.004-.054.004-.082V63.921z"/>
            <path fill="#E6E9ED" d="M52.5 0C38.99 0 28 10.875 28 24.243V61.09C28 62.698 29.316 64 30.94 64c1.624 0 2.94-1.302 2.94-2.91V24.244c0-10.16 8.353-18.425 18.62-18.425 10.267 0 18.62 8.266 18.62 18.425V61.09c0 1.607 1.316 2.909 2.94 2.909 1.624 0 2.94-1.302 2.94-2.91V24.244C77 10.875 66.01 0 52.5 0zM138.3 70c-1.491 0-2.7 1.301-2.7 2.907 0 8.092-5.448 14.836-12.6 16.213V95c10.142-1.429 18-10.788 18-22.093 0-1.605-1.208-2.907-2.7-2.907z"/>
        </g>
        <g fill="#FFF">
            <path d="M18.686 152.06v5.002c0 .556-.353.735-.836.735l-12.302.003v1.758h13.98c.586 0 .974-.49.974-.85v-6.648h-1.816z"/>
            <path d="M21.194 152.06h1.82v8.88c0 .608-.472 1.03-1.08 1.03-.716-.006-16.387 0-16.387 0v-1.751h14.517c.637 0 1.13-.268 1.13-1.018v-7.141z"/>
            <path d="M5.548 164.397v-1.761h16.897c.612 0 1.259-.295 1.259-1.157v-9.42h1.814v10.245c0 1.17-1.003 2.093-2.2 2.093H5.548z"/>
            <path d="M5.548 157.141v-1.76h9.922c.36 0 .705-.158.705-.659v-2.663h1.82v4.188c0 .644-.423.894-.907.894H5.548z"/>
            <path d="M12.38 154.714v-5.001c0-.557.354-.737.837-.737l12.3-.002v-1.758H11.54c-.586 0-.975.49-.975.85v6.649l1.816-.001z"/>
            <path d="M9.872 154.715H8.053v-8.881c0-.608.47-1.03 1.08-1.03.714.007 16.385 0 16.385 0v1.751H11.002c-.637 0-1.13.269-1.13 1.017v7.143z"/>
            <path d="M25.518 142.378v1.76H8.621c-.611 0-1.258.296-1.258 1.158v9.42H5.548v-10.247c0-1.168 1.004-2.09 2.2-2.09h17.77z"/>
            <path d="M25.518 149.633v1.76h-9.92c-.362 0-.707.16-.707.659v2.662h-1.82v-4.186c0-.644.424-.895.907-.895h11.54zM16.884 101.984c-.623 0-1.124-.455-1.124-1.053v-1.574h-1.837v1.865c0 1.418 1.191 2.539 2.658 2.539h8.936v-1.779l-8.633.002zM25.516 129.624v-1.777H13.89v1.777zM15.167 93.671c0-2.293 1.933-4.155 4.308-4.155 2.374 0 4.308 1.862 4.308 4.155 0 2.292-1.934 4.155-4.308 4.155-2.375 0-4.308-1.863-4.308-4.155zm0-10.095c0-2.293 1.933-4.158 4.308-4.158 2.374 0 4.308 1.865 4.308 4.158 0 2.292-1.934 4.157-4.308 4.157-2.375 0-4.308-1.865-4.308-4.157zm0-10.097c0-2.291 1.933-4.155 4.308-4.155 2.374 0 4.308 1.864 4.308 4.155 0 2.294-1.934 4.156-4.308 4.156-2.375 0-4.308-1.862-4.308-4.156zm14.807 26.124V97.81h-6.1a5.8 5.8 0 0 0 1.746-4.139c0-2.133-1.167-4.004-2.919-5.047 1.752-1.045 2.92-2.916 2.92-5.048 0-2.131-1.168-4.006-2.92-5.048 1.752-1.044 2.92-2.913 2.92-5.049 0-3.275-2.752-5.929-6.146-5.929-3.395 0-6.147 2.654-6.147 5.93 0 2.135 1.169 4.004 2.922 5.048-1.753 1.042-2.922 2.917-2.922 5.048 0 2.132 1.17 4.003 2.922 5.048-1.753 1.043-2.922 2.914-2.922 5.047 0 3.275 2.752 5.932 6.147 5.932h10.5zM15.103 110.567c0-1.79 1.179-3.415 3.02-4.01v8.025c-1.841-.593-3.02-2.225-3.02-4.015m10.454 0c0-2.728-1.904-5.058-4.642-5.699v1.72c1.755.591 2.934 2.183 2.934 3.979 0 2.182-1.704 3.996-4.016 4.209V104.7h-.358c-3.354 0-6.082 2.633-6.082 5.867 0 3.236 2.728 5.87 6.082 5.87 3.352 0 6.082-2.634 6.082-5.87M25.516 120.353l-11.626-4.45v2.028l9.357 3.581-9.357 3.582v2.026l11.626-4.449zM25.516 66.67v-1.779H9.905v1.78zM9.906 135.736H22.59c.631-.006 1.124-.357 1.124-1.052v-4.368h1.8v6.019c0 .76-.481 1.2-1.177 1.2H9.906v-1.799zM11.046 61.689c0-.158-.062-.261-.197-.261-.12 0-.195.093-.195.225v.329h.392v-.293zm-.569.496v-.554c0-.313.201-.417.34-.417a.36.36 0 0 1 .377.355h.009c.037-.107.15-.185.323-.289l.254-.154v.246l-.203.113c-.293.16-.35.22-.35.373v.124h.553v.203h-1.303zm-.38-.512c0 .538.451.972 1.012.972.558 0 1.014-.434 1.014-.972 0-.54-.456-.98-1.014-.98-.56 0-1.011.44-1.011.98zm2.228 0c0 .646-.545 1.169-1.216 1.169-.673 0-1.21-.523-1.21-1.17 0-.648.537-1.172 1.21-1.172.671 0 1.216.524 1.216 1.173zM11.77 129.626v-1.78H9.906v1.78z"/>
        </g>
    </g>
</svg>
