<svg xmlns="http://www.w3.org/2000/svg" width="70" height="18" viewBox="0 0 70 18">
    <g fill="none" fill-rule="nonzero">
        <path fill="#27346A" d="M12.739 1.362C11.92.41 10.443 0 8.553 0H3.066a.791.791 0 0 0-.776.678L.006 15.504a.479.479 0 0 0 .465.558h3.387l.851-5.522-.026.173a.789.789 0 0 1 .773-.678h1.61c3.161 0 5.637-1.314 6.36-5.116.022-.113.04-.222.057-.33-.092-.049-.092-.049 0 0 .215-1.404-.002-2.36-.744-3.227"/>
        <path fill="#27346A" d="M6.005 4.084a.676.676 0 0 1 .297-.069h4.301c.51 0 .984.034 1.419.106a5.84 5.84 0 0 1 .866.212c.213.073.412.158.595.257.215-1.406-.002-2.362-.744-3.228C11.92.41 10.443 0 8.553 0H3.066a.791.791 0 0 0-.776.678L.006 15.504a.478.478 0 0 0 .465.558h3.387L5.623 4.609a.702.702 0 0 1 .382-.525z"/>
        <path fill="#2790C3" d="M13.377 5.032c-.727 3.75-3.214 5.046-6.39 5.046H5.37a.787.787 0 0 0-.776.67l-1.063 6.77A.415.415 0 0 0 3.94 18h2.868c.34 0 .628-.248.681-.585l.028-.147.54-3.442.035-.19a.691.691 0 0 1 .682-.586h.429c2.778 0 4.953-1.134 5.59-4.414.265-1.371.127-2.516-.575-3.32a2.74 2.74 0 0 0-.785-.608 9.058 9.058 0 0 1-.056.324z"/>
        <path fill="#1F264F" d="M12.207 4.329a6.197 6.197 0 0 0-.358-.07 8.559 8.559 0 0 0-1.4-.105H6.209a.654.654 0 0 0-.293.068.694.694 0 0 0-.376.52l-.931 5.893-.032.233c.059-.387.416-.74.797-.74h1.588c3.119 0 5.691-1.227 6.405-5 .02-.111.052-.313.068-.42-.18-.097-.52-.167-.73-.239a4.717 4.717 0 0 0-.497-.14z"/>
        <path fill="#27346A" d="M26.433 4.444h-3.846a.538.538 0 0 0-.528.459l-1.555 10.039c-.03.198.12.377.317.377h1.836a.537.537 0 0 0 .528-.46l.42-2.708a.537.537 0 0 1 .527-.459h1.217c2.533 0 3.995-1.248 4.377-3.721.172-1.082.007-1.932-.49-2.527-.547-.654-1.517-1-2.803-1zm.444 3.666c-.21 1.405-1.265 1.405-2.285 1.405h-.58l.407-2.623a.322.322 0 0 1 .317-.276h.266c.694 0 1.35 0 1.688.403.202.24.263.598.187 1.091zM37.927 8.065h-1.841a.323.323 0 0 0-.317.276l-.08.524-.13-.19c-.399-.59-1.287-.786-2.175-.786-2.034 0-3.772 1.57-4.11 3.77-.177 1.099.073 2.148.685 2.88.562.674 1.364.954 2.32.954 1.639 0 2.549-1.073 2.549-1.073l-.083.521c-.03.199.12.378.317.378h1.658a.537.537 0 0 0 .528-.46l.996-6.417a.324.324 0 0 0-.317-.377zm-2.566 3.65c-.178 1.07-1.013 1.79-2.079 1.79-.534 0-.962-.176-1.236-.507-.273-.328-.375-.796-.289-1.316.166-1.062 1.015-1.804 2.064-1.804.523 0 .947.176 1.228.51.282.337.392.808.312 1.326zM47.735 8.065h-1.851a.532.532 0 0 0-.442.239l-2.553 3.828-1.082-3.679a.536.536 0 0 0-.512-.388h-1.82c-.22 0-.374.22-.303.432l2.038 6.09-1.917 2.753c-.15.216.001.515.262.515h1.849c.175 0 .339-.087.439-.234l6.155-9.044c.148-.216-.004-.512-.263-.512z"/>
        <path fill="#2790C3" d="M53.862 4.444h-3.846a.537.537 0 0 0-.528.459l-1.555 10.039c-.03.198.12.377.317.377h1.973c.184 0 .34-.136.37-.322l.44-2.846a.537.537 0 0 1 .528-.459h1.217c2.533 0 3.995-1.248 4.377-3.721.172-1.082.007-1.932-.49-2.527-.547-.654-1.517-1-2.803-1zm.443 3.666c-.21 1.405-1.264 1.405-2.284 1.405h-.58l.407-2.623a.323.323 0 0 1 .317-.276h.266c.694 0 1.35 0 1.687.403.203.24.264.598.187 1.091zM65.356 8.065h-1.841a.322.322 0 0 0-.317.276l-.081.524-.129-.19c-.399-.59-1.287-.786-2.175-.786-2.034 0-3.772 1.57-4.11 3.77-.177 1.099.073 2.148.685 2.88.562.674 1.364.954 2.32.954 1.64 0 2.549-1.073 2.549-1.073l-.082.521c-.031.199.119.378.316.378h1.659a.537.537 0 0 0 .527-.46l.996-6.417a.324.324 0 0 0-.317-.377zm-2.566 3.65c-.178 1.07-1.013 1.79-2.079 1.79-.534 0-.961-.176-1.236-.507-.272-.328-.375-.796-.289-1.316.166-1.062 1.015-1.804 2.064-1.804.523 0 .947.176 1.228.51.282.337.392.808.312 1.326zM67.527 4.72l-1.579 10.222c-.03.198.12.377.317.377h1.587a.537.537 0 0 0 .528-.46l1.556-10.038a.324.324 0 0 0-.316-.377h-1.777a.322.322 0 0 0-.316.275z"/>
    </g>
</svg>
