<svg xmlns="http://www.w3.org/2000/svg" width="70" height="18" viewBox="0 0 70 18">
    <g fill="#FFF" fill-rule="nonzero">
        <path d="M53.862 3.992h-3.846a.543.543 0 0 0-.528.474L47.933 14.84c-.03.204.12.39.317.39h1.973a.38.38 0 0 0 .37-.333l.44-2.94a.543.543 0 0 1 .528-.475h1.217c2.533 0 3.995-1.29 4.377-3.845.172-1.118.007-1.997-.49-2.612-.547-.676-1.517-1.033-2.803-1.033zm.443 3.788c-.21 1.453-1.264 1.453-2.284 1.453h-.58l.407-2.712a.326.326 0 0 1 .317-.284h.266c.694 0 1.35 0 1.687.416.203.249.264.618.187 1.127zM26.433 3.992h-3.846a.544.544 0 0 0-.528.474L20.504 14.84c-.03.204.12.39.317.39h1.836a.543.543 0 0 0 .528-.475l.42-2.798a.543.543 0 0 1 .527-.475h1.217c2.533 0 3.995-1.29 4.377-3.845.172-1.118.007-1.997-.49-2.612-.547-.676-1.517-1.033-2.803-1.033zm.444 3.788c-.21 1.453-1.265 1.453-2.285 1.453h-.58l.407-2.712a.326.326 0 0 1 .317-.284h.266c.694 0 1.35 0 1.688.416.202.249.263.618.187 1.127zM37.927 7.734h-1.841a.326.326 0 0 0-.317.285l-.08.541-.13-.196c-.399-.609-1.287-.812-2.175-.812-2.034 0-3.772 1.622-4.11 3.896-.177 1.135.073 2.22.685 2.976.562.696 1.364.985 2.32.985 1.639 0 2.549-1.108 2.549-1.108l-.083.538c-.03.205.12.39.317.39h1.658a.543.543 0 0 0 .528-.474l.996-6.631c.03-.205-.12-.39-.317-.39zm-2.566 3.77c-.178 1.107-1.013 1.85-2.079 1.85-.534 0-.962-.18-1.236-.523-.273-.339-.375-.822-.289-1.36.166-1.097 1.015-1.864 2.064-1.864.523 0 .947.182 1.228.528.282.348.392.834.312 1.37zM65.356 7.734h-1.841a.326.326 0 0 0-.317.285l-.081.541-.129-.196c-.399-.609-1.287-.812-2.175-.812-2.034 0-3.772 1.622-4.11 3.896-.177 1.135.073 2.22.685 2.976.562.696 1.364.985 2.32.985 1.64 0 2.549-1.108 2.549-1.108l-.082.538c-.031.205.119.39.316.39h1.659a.543.543 0 0 0 .527-.474l.996-6.631c.03-.205-.12-.39-.317-.39zm-2.566 3.77c-.178 1.107-1.013 1.85-2.079 1.85-.534 0-.961-.18-1.236-.523-.272-.339-.375-.822-.289-1.36.166-1.097 1.015-1.864 2.064-1.864.523 0 .947.182 1.228.528.282.348.392.834.312 1.37zM47.735 7.734h-1.851a.528.528 0 0 0-.442.247l-2.553 3.955-1.082-3.801a.539.539 0 0 0-.512-.401h-1.82c-.22 0-.374.227-.303.446l2.038 6.293-1.917 2.845c-.15.224.001.533.262.533h1.849c.175 0 .339-.09.439-.242l6.155-9.346c.148-.223-.004-.529-.263-.529zM67.527 4.277L65.948 14.84c-.03.204.12.39.317.39h1.587a.543.543 0 0 0 .528-.475l1.556-10.373c.031-.205-.12-.39-.316-.39h-1.777a.326.326 0 0 0-.316.285z"/>
        <path d="M12.96 4.535c.207-1.388-.002-2.333-.716-3.19C11.458.405 10.038 0 8.221 0H2.947a.767.767 0 0 0-.745.67L.006 15.32c-.044.289.169.55.447.55h3.256l-.225 1.5c-.038.252.148.48.391.48H6.62a.671.671 0 0 0 .652-.586l.027-.147.517-3.448.033-.19a.671.671 0 0 1 .652-.587h.41c2.66 0 4.741-1.136 5.35-4.423.254-1.373.122-2.519-.55-3.325a2.637 2.637 0 0 0-.751-.609" opacity=".68"/>
        <path d="M12.96 4.535c.207-1.388-.002-2.333-.716-3.19C11.458.405 10.038 0 8.221 0H2.947a.767.767 0 0 0-.745.67L.006 15.32c-.044.289.169.55.447.55h3.256l.818-5.456-.026.171c.058-.386.372-.67.743-.67h1.548c3.039 0 5.419-1.299 6.114-5.055.02-.111.038-.219.054-.325" opacity=".7"/>
        <path d="M5.405 4.554a.691.691 0 0 1 .367-.519.632.632 0 0 1 .286-.068h4.134c.49 0 .946.034 1.364.105a5.747 5.747 0 0 1 .676.158c.053.016.105.034.156.051.205.072.396.156.572.254.207-1.388-.001-2.333-.715-3.189C11.458.404 10.038 0 8.22 0H2.947a.767.767 0 0 0-.745.67L.006 15.32c-.044.289.169.55.447.55h3.256l.818-5.456.878-5.86z"/>
    </g>
</svg>
