<svg xmlns="http://www.w3.org/2000/svg" xmlns:xlink="http://www.w3.org/1999/xlink" width="197" height="30" viewBox="0 0 197 30">
    <defs>
        <path id="a" d="M0 .23h28.463V30H0z"/>
    </defs>
    <g fill="none" fill-rule="evenodd">
        <path fill="#FFF" d="M41.124 11.343V.682h-5.661v29.31h5.661V17.484H55.01V30h5.687V.682h-5.703v10.652zM161.655.682H141.17V30h21.823v-5.628h-16v-6.305h13.017v-5.919h-13.018V6.337h14.645zM126.288 30h4.652V.682h-5.742v17.503L112.578.682h-7.553V30h5.623V8.253zM86.76.682h-7.737L66.152 30h6.073l2.859-6.502h15.211L93.17 30h6.399L86.76.682zm-9.085 16.95l5.06-11.625 5.03 11.625h-10.09zM171.859.69V30H193v-5.626h-15.258V.682z"/>
        <mask id="b" fill="#fff">
            <use xlink:href="#a"/>
        </mask>
        <path fill="#FFF" d="M28.463 21.662A15.028 15.028 0 0 1 15.001 30C6.716 30 0 23.335 0 15.114 0 6.894 6.716.229 15.001.229c5.648 0 10.564 3.075 13.123 7.651l-4.94 2.792c-1.582-2.873-4.65-4.73-8.18-4.73-5.146 0-9.18 4.072-9.18 9.178 0 5.105 4.034 9.176 9.18 9.176 3.712 0 6.846-2.175 8.343-5.291l5.116 2.657z" mask="url(#b)"/>
    </g>
</svg>
