<svg xmlns="http://www.w3.org/2000/svg" width="140" height="36" viewBox="0 0 140 36">
    <g fill="none" fill-rule="nonzero">
        <path fill="#27346A" d="M25.36 2.799C23.734.839 20.792 0 17.029 0H6.105C5.335 0 4.68.591 4.56 1.393L.012 31.855c-.09.6.35 1.145.926 1.145h6.744l1.693-11.344-.052.355c.12-.802.77-1.393 1.539-1.393h3.204c6.296 0 11.225-2.7 12.665-10.512.043-.23.08-.456.112-.676-.182-.101-.182-.101 0 0 .428-2.887-.003-4.852-1.482-6.631"/>
        <path fill="#27346A" d="M11.956 8.39c.18-.09.38-.14.59-.14h8.563c1.014 0 1.96.07 2.825.217a11.306 11.306 0 0 1 1.4.33 7.52 7.52 0 0 1 1.508.635c.43-2.89-.002-4.854-1.481-6.633C23.732.839 20.79 0 17.028 0H6.104C5.334 0 4.68.591 4.56 1.393L.012 31.855c-.09.602.35 1.145.925 1.145h6.745l3.513-23.531a1.44 1.44 0 0 1 .76-1.078z"/>
        <path fill="#2790C3" d="M27.023 10.634c-1.403 7.335-6.205 9.871-12.339 9.871h-3.123c-.749 0-1.382.556-1.498 1.309L8.01 35.059a.81.81 0 0 0 .789.941h5.539a1.34 1.34 0 0 0 1.315-1.144l.054-.288 1.044-6.733.067-.372a1.34 1.34 0 0 1 1.316-1.145h.829c5.365 0 9.566-2.218 10.794-8.635.512-2.681.247-4.92-1.108-6.492A5.303 5.303 0 0 0 27.132 10c-.032.207-.067.417-.109.634z"/>
        <path fill="#1F264F" d="M24.506 8.365a12.307 12.307 0 0 0-.726-.146A16.958 16.958 0 0 0 20.936 8h-8.62a1.3 1.3 0 0 0-.594.143 1.445 1.445 0 0 0-.765 1.085L9.066 21.513 9 22c.12-.807.846-1.546 1.62-1.546h3.227c6.337 0 11.564-2.557 13.014-10.423.043-.232.106-.652.139-.874-.367-.205-1.056-.35-1.484-.5a9.41 9.41 0 0 0-1.01-.292z"/>
        <path fill="#27346A" d="M52.492 9h-7.45c-.508 0-.942.376-1.022.887l-3.012 19.385a.628.628 0 0 0 .613.728h3.557c.51 0 .943-.376 1.023-.886l.813-5.23a1.04 1.04 0 0 1 1.022-.887h2.357c4.907 0 7.74-2.41 8.48-7.186.332-2.089.013-3.73-.95-4.88C56.862 9.669 54.983 9 52.492 9zm.86 7.08c-.407 2.713-2.45 2.713-4.424 2.713h-1.124l.788-5.066a.624.624 0 0 1 .613-.532h.515c1.345 0 2.615 0 3.27.777.392.466.51 1.155.362 2.108zM75.36 16.348h-3.67a.64.64 0 0 0-.631.543l-.162 1.034-.256-.374C69.846 16.388 68.074 16 66.305 16c-4.056 0-7.52 3.096-8.195 7.438-.351 2.166.147 4.237 1.367 5.682C60.597 30.447 62.195 31 64.1 31c3.269 0 5.082-2.116 5.082-2.116l-.164 1.028a.642.642 0 0 0 .631.745h3.306c.525 0 .97-.384 1.052-.905l1.985-12.66a.642.642 0 0 0-.631-.744zm-5.115 7.198c-.355 2.113-2.02 3.531-4.144 3.531-1.064 0-1.917-.345-2.465-.998-.543-.647-.747-1.57-.575-2.597.33-2.094 2.023-3.559 4.114-3.559 1.043 0 1.89.348 2.448 1.008.562.664.783 1.592.622 2.615zM95.35 17h-3.742a1.09 1.09 0 0 0-.894.463l-5.163 7.43-2.188-7.14A1.078 1.078 0 0 0 82.328 17h-3.68a.636.636 0 0 0-.613.838l4.121 11.819L78.28 35c-.304.42.003 1 .53 1h3.738c.355 0 .686-.17.888-.454l12.448-17.552c.297-.42-.01-.994-.533-.994z"/>
        <path fill="#2790C3" d="M107.492 9h-7.45c-.509 0-.942.376-1.022.887l-3.012 19.385a.627.627 0 0 0 .613.728h3.823c.356 0 .66-.263.715-.62l.855-5.496a1.04 1.04 0 0 1 1.022-.887h2.358c4.906 0 7.738-2.41 8.478-7.186.334-2.089.014-3.73-.95-4.88-1.06-1.263-2.937-1.931-5.43-1.931zm.86 7.08c-.407 2.713-2.449 2.713-4.425 2.713h-1.123l.788-5.066a.624.624 0 0 1 .613-.532h.516c1.344 0 2.614 0 3.269.777.392.466.51 1.155.362 2.108zM131.36 16.348h-3.67a.64.64 0 0 0-.631.543l-.162 1.034-.257-.374c-.795-1.163-2.567-1.551-4.336-1.551-4.056 0-7.52 3.096-8.194 7.438-.351 2.166.147 4.237 1.367 5.682 1.12 1.327 2.718 1.88 4.623 1.88 3.269 0 5.082-2.116 5.082-2.116l-.164 1.028a.642.642 0 0 0 .631.745h3.306c.525 0 .97-.384 1.052-.905l1.985-12.66a.642.642 0 0 0-.632-.744zm-5.115 7.198c-.355 2.113-2.02 3.531-4.143 3.531-1.065 0-1.917-.345-2.466-.998-.542-.647-.747-1.57-.575-2.597.331-2.094 2.022-3.559 4.114-3.559 1.042 0 1.889.348 2.448 1.008.562.664.782 1.592.622 2.615zM135.168 9.532l-3.16 19.74a.634.634 0 0 0 .634.728h3.178c.526 0 .974-.376 1.057-.886l3.115-19.386a.634.634 0 0 0-.634-.728h-3.556a.638.638 0 0 0-.634.532z"/>
    </g>
</svg>
