<?xml version="1.0" encoding="UTF-8"?>
<svg width="128px" height="128px" viewBox="0 0 128 128" version="1.1" xmlns="http://www.w3.org/2000/svg" xmlns:xlink="http://www.w3.org/1999/xlink">
    <!-- Generator: Sketch 53.2 (72643) - https://sketchapp.com -->
    <title>Favicon</title>
    <desc>Created with Sketch.</desc>
    <defs>
        <polygon id="path-1" points="0.00011 0.52492 61.63531 0.52492 61.63531 96.8 0.00011 96.8"></polygon>
    </defs>
    <g id="Favicon" stroke="none" stroke-width="1" fill="none" fill-rule="evenodd">
        <g id="Group-18" transform="translate(9.000000, 15.000000)">
            <path d="M61.63179,64.44174 L36.64089,64.44174 C33.85789,64.44174 32.96469,62.73014 32.96469,60.40584 C32.96469,58.51934 32.95149,1.10484 32.95149,1.10484 L24.16469,1.10484 L24.16469,68.49194 C24.16469,71.32224 26.61219,73.18564 28.41949,73.18564 L61.63619,73.18564 L61.63179,64.44174 Z" id="Fill-1" fill="#E10098"></path>
            <path d="M61.63608,76.52997 L61.63608,85.29587 L17.26758,85.29587 C14.22718,85.29587 12.12398,83.03097 12.12398,80.09177 C12.15478,76.64327 12.11958,1.09967 12.11958,1.09967 L20.87228,1.09967 L20.87228,71.07837 C20.87228,74.15287 22.20988,76.52997 25.95428,76.52997 L61.63608,76.52997 Z" id="Fill-3" fill="#E10098"></path>
            <g id="Group-7" transform="translate(0.000000, 0.576070)">
                <mask id="mask-2" fill="white">
                    <use xlink:href="#path-1"></use>
                </mask>
                <g id="Clip-6"></g>
                <path d="M0.00011,0.52492 L8.79571,0.52492 L8.79571,81.98102 C8.79571,84.93012 10.26751,88.05192 14.57841,88.05192 L61.63531,88.05192 L61.63531,96.80022 L10.44681,96.80022 C4.61571,96.80022 0.00011,91.95802 0.00011,86.18742 L0.00011,0.52492 Z" id="Fill-5" fill="#E10098" mask="url(#mask-2)"></path>
            </g>
            <path d="M36.24423,1.10099 L45.04093,1.10099 L45.04093,48.93119 C45.04093,50.67359 45.82853,52.33239 48.32333,52.33239 L61.63223,52.33239 L61.63223,61.11149 L40.71243,61.11149 C37.49383,61.11149 36.24423,59.06879 36.24423,56.73569 L36.24423,1.10099 Z" id="Fill-8" fill="#E10098"></path>
            <path d="M48.36788,34.03653 L73.35878,34.03653 C76.14178,34.03653 77.03828,35.74373 77.03828,38.07353 C77.03828,39.95453 77.04708,97.37453 77.04708,97.37453 L85.83388,97.37453 L85.83388,29.98193 C85.83388,27.15163 83.38638,25.28823 81.58018,25.28823 L48.36788,25.28823 L48.36788,34.03653 Z" id="Fill-10" fill="#E10098"></path>
            <path d="M48.36788,21.94885 L48.36788,13.17855 L92.74078,13.17855 C95.77128,13.17855 97.87448,15.44675 97.87448,18.38265 C97.84478,21.83115 97.87888,97.37365 97.87888,97.37365 L89.12618,97.37365 L89.12618,27.40045 C89.12618,24.32265 87.79408,21.94885 84.04858,21.94885 L48.36788,21.94885 Z" id="Fill-12" fill="#E10098"></path>
            <path d="M109.99956,97.37519 L101.20396,97.37519 L101.20396,15.91909 C101.20396,12.97109 99.73216,9.84929 95.42456,9.84929 L48.36986,9.84929 L48.36986,1.10099 L99.55286,1.10099 C105.38836,1.10099 109.99956,5.94319 109.99956,11.71269 L109.99956,97.37519 Z" id="Fill-14" fill="#E10098"></path>
            <path d="M73.75544,97.37519 L64.96424,97.37519 L64.96424,49.54939 C64.96424,47.80369 64.17114,46.14379 61.67634,46.14379 L48.36854,46.14379 L48.36854,37.37019 L69.28724,37.37019 C72.50584,37.37019 73.75544,39.41179 73.75544,41.74159 L73.75544,97.37519 Z" id="Fill-16" fill="#E10098"></path>
        </g>
    </g>
</svg>