<?xml version="1.0" encoding="utf-8"?>
<!-- Generator: Adobe Illustrator 21.0.2, SVG Export Plug-In . SVG Version: 6.00 Build 0)  -->
<svg version="1.1" id="Layer_1" xmlns="http://www.w3.org/2000/svg" xmlns:xlink="http://www.w3.org/1999/xlink" x="0px" y="0px"
	 viewBox="0 0 951.4 254.7" style="enable-background:new 0 0 951.4 254.7;" xml:space="preserve">
<style type="text/css">
	.st0{fill-rule:evenodd;clip-rule:evenodd;fill:#050800;}
</style>
<g>
	<path class="st0" d="M114.1,141v41.2c0,6.9,4,11.1,10.8,11.1c0,0,15.1,0,16.2,0c0,1.1,0,19.6,0,20.7c-1.2,0-97.5,0-98.8,0
		c0-1.1,0-19.6,0-20.7c1.1,0,14.7,0,14.7,0c6.8,0,10.8-4.1,10.8-11.1V78.4c0-6.9-4-11.1-10.8-11.1c0,0-13.8,0-15,0
		c0-1.1,0-19.6,0-20.7c1.2,0,106,0,106,0c44.8,0,65.7,15,65.7,47.1c0,32.7-21.8,47.3-70.8,47.3H114.1z M114.1,120.3h22.8
		c18.7,0,30.7-10.4,30.7-26.4c0-15.7-11-26.6-26.6-26.6h-26h-0.6l-0.2,0.6V120.3z"/>
	<path class="st0" d="M390.6,169.4c0,32.1-19.1,44.5-68,44.5c0,0-101,0-102.2,0c0-1.1,0-19.6,0-20.7c1.1,0,13.4,0,13.4,0
		c6.9,0,10.8-4,10.8-11.1V78.4c0-6.9-4-11.1-10.8-11.1c0,0-12.5,0-13.7,0c0-1.1,0-19.6,0-20.7c1.2,0,109.1,0,109.1,0
		c33.8,0,53.2,14.1,53.2,38.7c0,19.9-12.7,33.8-35.8,39.2l-0.5,0.1l-0.2,0.5v1.3l1.9,0.6C368.9,133.5,390.6,140.1,390.6,169.4z
		 M290.9,116.8h14.9c20.8,0,30.5-7.9,30.5-24.9c0-17-9.4-24.6-30.5-24.6h-14h-0.6l-0.2,0.6V116.8z M342.1,165.4
		c0-24.7-17.8-27.9-33.3-27.9h-17.1h-0.6l-0.2,0.6v55.2h18C324.3,193.3,342.1,190.1,342.1,165.4z"/>
	<path class="st0" d="M495.6,157c-1.6,0-15.7,0-17.3,0c0,1.7,0,18.1,0,18.1c0,9.6-1.6,19.4-13.2,19.4c-5.9,0-9.7-4.2-9.7-10.7v-69.5
		c0,0,28.8,0,30.5,0c0-1.6,0-15.7,0-17.3c-1.7,0-30.5,0-30.5,0s0-44.4,0-46.2c-1.7,0-20.8,0-22.2,0C430,81,419.2,96,400.1,96.6
		c0,1.3,0,15.9,0,17.5c1.7,0,16.6,0,16.6,0v63.6c0,23.8,13.3,36.4,38.4,36.4c27.6,0,40.4-11.6,40.4-36.4
		C495.6,177.8,495.6,158.6,495.6,157z"/>
	<path class="st0" d="M505,153.7c0-36.2,24.7-60.5,61.5-60.5c37,0,61.1,25.5,61.7,64.9c-1.9,0-81.8,0-81.8,0v1.3
		c0,15.5,2.7,36,26.1,36c8.9,0,23-6.9,26-21.3c1.1,0,24.1,0,26.3,0c-4.6,27.7-32.4,40.1-58.2,40.1C526.9,214.2,505,192.7,505,153.7z
		 M546.9,140.8h40.1v-7.7c0-14-7.6-22.6-19.9-22.6c-12.4,0-20.2,8.7-20.2,22.6V140.8z"/>
	<path class="st0" d="M636.3,153.7c0-36.2,24.7-60.5,61.5-60.5c37,0,61.1,25.5,61.7,64.9c-1.9,0-81.8,0-81.8,0v1.3
		c0,15.5,2.7,36,26.1,36c8.9,0,23-6.9,26-21.3c1.1,0,24.1,0,26.3,0c-4.6,27.7-32.4,40.1-58.2,40.1
		C658.1,214.2,636.3,192.7,636.3,153.7z M678.1,140.8h40v-7.7c0-14-7.6-22.6-19.9-22.6c-12.4,0-20.1,8.7-20.1,22.6V140.8z"/>
	<path class="st0" d="M860,141.4v42.7c0,6.2-1.2,12-10.2,12c0,0-2,0-3.1,0c0,1.6,0,15.7,0,17.3c1.8,0,68.5,0,70.3,0
		c0-1.6,0-15.7,0-17.3c-1.5,0-8.1,0-8.1,0c-9,0-10.2-5.7-10.2-12v-47.2c0-27.9-11.6-40.9-36.4-40.9c-18.9,0-30.6,6.2-41.6,22.3
		l-0.4,0.5H819h-1.3c0,0,0-17.4,0-19.1c-1.7,0-54,0-55.8,0c0,1.6,0,15.7,0,17.3c1.5,0,8.9,0,8.9,0c9,0,10.2,5.8,10.2,12v55.1
		c0,6.2-1.2,12-10.2,12c0,0-7.1,0-8.7,0c0,1.6,0,15.7,0,17.3c1.8,0,69.8,0,71.5,0c0-1.6,0-15.7,0-17.3c-1.2,0-3.8,0-3.8,0
		c-9,0-10.2-5.7-10.2-12v-45.9c0-10.8,7.6-22.4,19.9-22.4C858.5,115.8,860,128.4,860,141.4z"/>
</g>
</svg>
