<?xml version="1.0" encoding="utf-8"?>
<!-- Generator: Adobe Illustrator 21.0.2, SVG Export Plug-In . SVG Version: 6.00 Build 0)  -->
<svg version="1.1" id="Layer_1" xmlns="http://www.w3.org/2000/svg" xmlns:xlink="http://www.w3.org/1999/xlink" x="0px" y="0px"
	 viewBox="0 0 461.5 92.5" style="enable-background:new 0 0 461.5 92.5;" xml:space="preserve">
<style type="text/css">
	.st0{fill:#383832;}
</style>
<g>
	<path class="st0" d="M18,44.3c0-2.5,0-2.9-1.8-4l-0.6-0.4c-0.3-0.3-0.3-1,0.1-1.2c1.7-0.7,4.7-2.3,6.4-3.5c0.4,0,0.6,0.1,0.8,0.5
		c-0.1,1.2-0.3,2.1-0.3,3c0,0.5,0.1,0.8,0.6,0.8c0.8-0.4,4.9-3.1,9.1-3.1c6.6,0,10.8,5.3,10.8,11.9c0,9-6.6,15.5-15.9,15.5
		c-1.2,0-3-0.1-3.6-0.3c-0.6,0.1-0.9,0.5-0.9,1.8v6.8c0,4.6,0.1,5.2,2.5,5.5l2.5,0.3c0.5,0.3,0.3,1.4-0.1,1.6
		c-3.1-0.1-5-0.2-7.3-0.2c-2.3,0-4.3,0.1-6.1,0.2c-0.5-0.2-0.6-1.3-0.1-1.6l1.4-0.2c2.4-0.3,2.5-1,2.5-5.7V44.3z M22.8,56.4
		c0,2.1,0.6,2.9,2,3.9c1.3,1,3.3,1.4,4.7,1.4c5.3,0,8.4-4.9,8.4-11.7c0-5.2-2.9-10.5-8.8-10.5c-2.8,0-4.8,1-5.5,1.8
		c-0.6,0.7-0.8,1.7-0.8,3.8V56.4z"/>
	<path class="st0" d="M75.4,49.9c0,8.1-5.6,14-13.7,14c-7.5,0-13.3-5.3-13.3-13.4c0-8.2,6.2-14,13.8-14
		C69.5,36.4,75.4,41.9,75.4,49.9z M61.4,38.4c-4.3,0-7.5,4.1-7.5,11.2c0,5.9,2.7,12.3,8.4,12.3c5.7,0,7.5-6,7.5-11
		C69.8,45.4,67.6,38.4,61.4,38.4z"/>
	<path class="st0" d="M90,40c-1.1,0-1.2,0.2-1.2,1.6v12.2c0,3.8,0.5,7.2,4.7,7.2c0.7,0,1.2-0.1,1.8-0.3c0.6-0.2,1.4-0.9,1.6-0.9
		c0.5,0,0.8,0.7,0.6,1.1c-1.2,1.4-3.5,3-6.8,3c-5.6,0-6.8-3.1-6.8-7V41.9c0-1.8-0.1-1.9-1.4-1.9h-1.8c-0.4-0.3-0.5-1-0.2-1.4
		c1.9-0.6,3.5-1.4,4.2-2c0.8-0.8,2.1-2.5,2.7-3.8c0.3-0.1,1.1-0.1,1.4,0.3v2.9c0,1.2,0.1,1.2,1.2,1.2h7.2c0.8,0.6,0.7,2.3,0.1,2.7
		H90z"/>
	<path class="st0" d="M110.6,40c-1.1,0-1.2,0.2-1.2,1.6v12.2c0,3.8,0.5,7.2,4.7,7.2c0.7,0,1.2-0.1,1.8-0.3c0.6-0.2,1.4-0.9,1.6-0.9
		c0.5,0,0.8,0.7,0.6,1.1c-1.2,1.4-3.5,3-6.8,3c-5.6,0-6.8-3.1-6.8-7V41.9c0-1.8-0.1-1.9-1.4-1.9h-1.8c-0.4-0.3-0.5-1-0.2-1.4
		c1.9-0.6,3.5-1.4,4.2-2c0.8-0.8,2.1-2.5,2.7-3.8c0.3-0.1,1.1-0.1,1.4,0.3v2.9c0,1.2,0.1,1.2,1.2,1.2h7.2c0.8,0.6,0.6,2.3,0.1,2.7
		H110.6z"/>
	<path class="st0" d="M128,46.3c-1.7,0-1.8,0.1-1.8,1.8c0,6.6,3.8,12.2,10.8,12.2c2.1,0,4-0.6,6-3.2c0.6-0.2,1.1,0.2,1.2,0.8
		c-2.1,4.4-6.8,6-10.2,6c-4.2,0-7.5-1.8-9.4-4.3c-1.9-2.5-2.7-5.6-2.7-8.5c0-8,5.3-14.7,13.1-14.7c5.6,0,9.2,3.8,9.2,7.7
		c0,0.9-0.1,1.4-0.3,1.7c-0.2,0.4-1.1,0.5-3.8,0.5H128z M132,44.3c4.8,0,6.2-0.3,6.8-0.7c0.2-0.1,0.4-0.4,0.4-1.2
		c0-1.8-1.2-4.1-5-4.1c-3.8,0-7.1,3.5-7.2,5.7c0,0.1,0,0.3,0.5,0.3H132z"/>
	<path class="st0" d="M152.3,44.3c0-2.5,0-2.9-1.8-4l-0.6-0.4c-0.3-0.3-0.3-1,0.1-1.2c1.5-0.5,4.9-2.2,6.6-3.2
		c0.3,0.1,0.5,0.2,0.5,0.5v3.8c0,0.3,0.1,0.5,0.2,0.6c2.3-1.9,4.7-3.9,7.2-3.9c1.6,0,2.9,1,2.9,2.6c0,2.1-1.8,3-2.8,3
		c-0.6,0-1-0.2-1.4-0.5c-1-0.7-1.9-1-2.9-1c-1,0-1.8,0.6-2.3,1.3c-0.6,0.9-0.8,2.8-0.8,5v8.8c0,4.7,0.1,5.5,2.6,5.7l2.3,0.2
		c0.5,0.3,0.3,1.4-0.1,1.6c-3.1-0.1-4.9-0.2-7.2-0.2c-2.3,0-4.3,0.1-6,0.2c-0.5-0.2-0.6-1.3-0.1-1.6l1.2-0.2c2.4-0.4,2.5-1,2.5-5.7
		V44.3z"/>
	<path class="st0" d="M170.9,76.3c0-1.8,1.2-2.6,2.6-2.6h1.2c1,0,1.7-0.5,2.1-1.2c1.9-2.9,3.2-5.7,3.8-7.2c0.2-0.5,0.6-1.9,0.6-2.8
		c0-1.3-0.3-2.1-1.1-4.5l-5.1-13.9c-1.1-3.1-1.6-4.6-3.8-5.1l-1.6-0.3c-0.4-0.3-0.3-1.4,0.2-1.6c2.1,0.1,4,0.2,6.2,0.2
		c1.8,0,3.6-0.1,5.7-0.2c0.5,0.2,0.6,1.3,0.1,1.6l-1.6,0.3c-0.9,0.2-1.4,0.4-1.4,0.8c0,0.8,1.5,5,1.9,6.1l2.1,6
		c0.4,1,1.6,4.5,1.9,4.6c0.2-0.1,1.2-2.1,2.4-4.8l2.2-5.1c1.4-3.4,2.3-5.8,2.3-6.5c0-0.5-0.4-0.9-1.6-1.1l-2-0.3
		c-0.5-0.3-0.4-1.4,0.1-1.6c2.1,0.1,4,0.2,5.7,0.2c1.6,0,3.1-0.1,4.9-0.2c0.5,0.3,0.6,1.2,0.1,1.6l-1.1,0.2
		c-2.1,0.4-3.3,2.3-5.5,6.9l-3.6,7.5c-2.1,4.4-7.5,15.7-10.7,22.7c-1.1,2.5-2.7,3.1-4.2,3.1C171.8,79.1,170.9,77.9,170.9,76.3z"/>
	<path class="st0" d="M220.2,26.3c0-3.8-0.1-4.2-2-5.4l-0.6-0.4c-0.3-0.2-0.3-1.1,0-1.3c1.5-0.6,4.6-1.4,7.1-2.7
		c0.3,0,0.5,0.1,0.6,0.4c-0.1,2.3-0.3,5.2-0.3,8.1v12.3c0,1.1,0.3,1.4,0.7,1.4c1.7-1,4.3-2.1,7.5-2.1c7.4,0,12.4,5.6,12.4,12.7
		c0,8.6-6.2,14.7-15,14.7c-2.4,0-4.2-0.4-5.5-0.8c-1.4-0.4-2.2-0.8-2.7-0.8c-0.5,0-1,0.5-1.4,1c-0.1,0.1-0.1,0.1-0.3,0.1
		c-0.3,0-0.5-0.1-0.7-0.4c0.1-0.9,0.1-2.1,0.1-5.5V26.3z M225,54.1c0,2.3,0.5,4.3,1.6,5.7c1.1,1.4,2.9,2.1,4.9,2.1
		c6.1,0,8.5-5.2,8.5-10.8c0-6.7-3.4-11.9-9.9-11.9c-2,0-3.5,0.5-4.4,1c-0.7,0.5-0.8,1.2-0.8,3.7V54.1z"/>
	<path class="st0" d="M263.9,49.5c1-0.3,1-0.9,1.1-1.9l0.1-3c0.1-2.4-0.7-5.7-4.7-5.7c-1.8,0-4,0.9-4.2,2.9c-0.1,1-0.1,1.8-0.6,2.2
		c-1,0.8-2.7,1.2-3.7,1.2c-0.6,0-0.9-0.3-0.9-0.9c0-3.4,7.3-8,12.1-8c4.7,0,7,2.7,6.8,7.6l-0.4,11.3c-0.1,3,0.5,5.7,3,5.7
		c0.6,0,1.2-0.2,1.6-0.4c0.3-0.2,0.6-0.5,0.8-0.5c0.3,0,0.5,0.4,0.5,0.8c0,0.3-2.3,2.9-5.5,2.9c-1.6,0-3.1-0.6-4.2-2
		c-0.3-0.4-0.7-0.9-1-0.9c-0.5,0-1.2,0.6-2.5,1.3c-1.4,0.8-2.9,1.6-4.7,1.6c-1.9,0-3.4-0.5-4.5-1.5c-1.2-1.1-2-2.7-2-4.5
		c0-2.5,1.2-4,5.4-5.5L263.9,49.5z M259.8,60.9c1.3,0,3.3-1,4-1.6c0.8-0.8,0.8-1.7,0.8-3.1l0.1-3.8c0-0.7-0.3-0.8-0.7-0.8
		c-0.4,0-1.5,0.3-2.7,0.6c-3.8,1.3-5.7,2.3-5.7,4.8C255.7,58.1,256.5,60.9,259.8,60.9z"/>
	<path class="st0" d="M281.7,44.3c0-2.5,0-2.9-1.8-4l-0.6-0.4c-0.3-0.3-0.3-1,0.1-1.2c1.5-0.5,4.9-2.2,6.6-3.2
		c0.3,0.1,0.5,0.2,0.5,0.5v3.8c0,0.3,0.1,0.5,0.2,0.6c2.3-1.9,4.7-3.9,7.1-3.9c1.6,0,2.9,1,2.9,2.6c0,2.1-1.8,3-2.8,3
		c-0.6,0-1-0.2-1.4-0.5c-1-0.7-2-1-2.9-1c-1,0-1.8,0.6-2.3,1.3c-0.6,0.9-0.8,2.8-0.8,5v8.8c0,4.7,0.1,5.5,2.6,5.7l2.3,0.2
		c0.5,0.3,0.3,1.4-0.1,1.6c-3.1-0.1-4.9-0.2-7.2-0.2c-2.3,0-4.3,0.1-6,0.2c-0.5-0.2-0.6-1.3-0.1-1.6l1.2-0.2c2.4-0.4,2.5-1,2.5-5.7
		V44.3z"/>
	<path class="st0" d="M304,44.3c0-2.5,0-2.9-1.8-4l-0.6-0.4c-0.3-0.3-0.3-1,0.1-1.2c1.5-0.5,5.2-2.2,6.5-3.2c0.3,0,0.6,0.1,0.7,0.5
		c-0.1,1.5-0.1,2.5-0.1,3.1c0,0.4,0.3,0.7,0.7,0.7c2.7-1.7,5.8-3.3,9.1-3.3c5.4,0,7.6,3.7,7.6,8.1v11.2c0,4.7,0.1,5.3,2.5,5.7
		l1.4,0.2c0.5,0.3,0.3,1.4-0.1,1.6c-2-0.1-3.8-0.2-6.1-0.2c-2.3,0-4.3,0.1-6,0.2c-0.5-0.2-0.6-1.3-0.1-1.6l1.2-0.2
		c2.4-0.4,2.5-1,2.5-5.7V46c0-3.7-1.7-6.4-6.1-6.4c-2.5,0-4.6,1-5.5,2.3c-0.8,1.1-1,2-1,3.9v9.9c0,4.7,0.1,5.3,2.5,5.7l1.2,0.2
		c0.5,0.3,0.3,1.4-0.1,1.6c-1.8-0.1-3.6-0.2-5.9-0.2c-2.3,0-4.3,0.1-6.1,0.2c-0.5-0.2-0.6-1.3-0.1-1.6l1.4-0.2
		c2.4-0.3,2.5-1,2.5-5.7V44.3z"/>
	<path class="st0" d="M355,26.3c0-3.8-0.1-4.2-2-5.4l-0.7-0.4c-0.3-0.2-0.3-1.1,0-1.3c1.6-0.5,4.7-1.5,7-2.7c0.3,0,0.5,0.1,0.6,0.4
		c-0.1,1.9-0.2,5.2-0.2,8.1v22.3c0,0.8,0.1,1,1.2,1c1.4,0,2.7-0.7,4.4-2.5l2.7-2.9c1.8-2,2.3-2.7,2.3-3c0-0.3-0.3-0.5-1.4-0.6
		l-1.6-0.2c-0.6-0.2-0.6-1.4,0-1.6h1.5c2.9,0,6.7-0.1,10.3-0.5c0.5,0.2,0.5,1.3,0.1,1.6l-2.1,0.4c-1.3,0.3-2.4,0.9-4.1,2.3
		c-2.5,2-4.7,4.4-5.9,5.5c-0.8,0.7-0.8,1-0.5,1.6c1.1,1.5,2.1,2.7,4.4,5.2c2.5,2.9,4.8,5.4,6.1,6.6c0.9,0.8,2.2,1.2,3.4,1.4l0.9,0.1
		c0.5,0.3,0.4,1.4-0.1,1.6c-1.9-0.1-4.1-0.2-6.2-0.2c-2.6,0-4.9,0.1-6.8,0.2c-0.5-0.3-0.6-1.4-0.1-1.6l1.2-0.2
		c1-0.1,1.6-0.3,1.6-0.7c0-0.4-0.3-0.8-1.1-1.8l-7-8.1c-0.6-0.6-1.3-0.9-2-0.9c-1.2,0-1.2,0.2-1.2,2.2v3.6c0,4.7,0.1,5.3,2.5,5.7
		l1.6,0.2c0.5,0.3,0.3,1.4-0.1,1.6c-2.1-0.1-4-0.2-6.3-0.2c-2.3,0-4.3,0.1-6.2,0.2c-0.5-0.2-0.6-1.3-0.1-1.6l1.4-0.2
		c2.4-0.3,2.5-1,2.5-5.7V26.3z"/>
	<path class="st0" d="M387.6,44.3c0-2.5,0-2.9-1.8-4l-0.6-0.4c-0.3-0.3-0.3-1,0.1-1.2c1.5-0.5,5.2-2.2,6.7-3.2
		c0.3,0,0.6,0.1,0.7,0.4c-0.1,2.3-0.3,5.4-0.3,8.1v11.7c0,4.7,0.1,5.3,2.5,5.7l1.4,0.2c0.5,0.3,0.3,1.4-0.1,1.6
		c-2-0.1-3.8-0.2-6.1-0.2c-2.3,0-4.3,0.1-6.1,0.2c-0.5-0.2-0.6-1.3-0.1-1.6l1.4-0.2c2.4-0.3,2.5-1,2.5-5.7V44.3z M393,23.2
		c0,2.3-1.6,3.3-3.4,3.3c-2,0-3.3-1.4-3.3-3.2c0-2.1,1.6-3.4,3.5-3.4C391.7,19.9,393,21.4,393,23.2z"/>
	<path class="st0" d="M426.2,53.4c0,5.1,0.1,7.5,1.9,7.5c0.7,0,1.8-0.3,2.8-0.6c0.5,0.1,0.5,1.8-0.1,2.1c-2.7,0.4-6.8,1.4-8.6,2.1
		c-0.4,0-0.7-0.2-0.7-0.5v-1.1c0-1,0-1.8-0.1-2h-0.3c-2.9,2-5.1,3-8.2,3c-7.2,0-12-5.7-12-12.5c0-9.1,6.9-15,15.7-15
		c2.2,0,3.6,0.3,4.4,0.6c0.3,0,0.4-0.4,0.4-0.9v-9.8c0-3.8-0.1-4.2-2-5.4l-0.6-0.4c-0.3-0.2-0.3-1.1,0-1.3c1.6-0.5,4.7-1.5,7-2.7
		c0.3,0,0.5,0.1,0.7,0.4c-0.1,1.9-0.2,5.2-0.2,8.1V53.4z M421.4,43.7c0-1.3-0.3-1.9-0.7-2.5c-1-1.4-2.9-2.7-5.5-2.7
		c-5.9,0-9,5.1-9,10.8c0,5.9,3.3,11.5,9.7,11.5c1.8,0,4-0.8,5-1.8c0.4-0.4,0.5-1.4,0.5-2.4V43.7z"/>
	<path class="st0" d="M450.2,37.6c0.6,1.4,1,3.5,1,5.3c-0.3,0.5-1.2,0.6-1.6,0.2c-1.1-2.9-3.1-4.7-5.7-4.7c-2.5,0-4.2,1.6-4.2,4
		c0,2.7,2.7,4.1,5,5.4c3.4,2,6.6,4.2,6.6,8.8c0,4.9-4.6,7.4-9.4,7.4c-3.1,0-5.3-0.7-7-2c-0.5-1.2-0.9-4.4-0.8-6.6
		c0.3-0.4,1.2-0.5,1.5-0.1c1.1,3.6,3.2,6.7,6.9,6.7c2.3,0,4.4-1.4,4.4-4.2c0-3-2.6-4.6-5-6c-3.8-2.1-6.4-4.4-6.4-8
		c0-4.7,3.9-7.4,8.8-7.4C447.2,36.4,449.6,37.1,450.2,37.6z"/>
</g>
</svg>
