<?xml version="1.0" encoding="UTF-8"?>
<svg width="860px" height="60px" viewBox="0 0 860 60" version="1.1" xmlns="http://www.w3.org/2000/svg" xmlns:xlink="http://www.w3.org/1999/xlink">
    <!-- Generator: Sketch 55.2 (78181) - https://sketchapp.com -->
    <title>atom / logos / potterybarn / regular / white</title>
    <desc>Created with Sketch.</desc>
    <g id="Symbols" stroke="none" stroke-width="1" fill="none" fill-rule="evenodd">
        <g id="splash" transform="translate(-191.000000, -1281.000000)" fill="#FFFFFF">
            <g id="atom-/-logos-/-potterybarn-/-regular-/-white" transform="translate(187.000000, 1277.000000)">
                <path d="M17.3046006,35.2437777 L17.3046006,62.448346 L19.8090882,62.448346 L19.8090882,63.75 L4.25490196,63.75 L4.25490196,62.448346 L6.75938957,62.448346 L6.75938957,5.69623216 L4.25490196,5.69623216 L4.25490196,4.26441278 L22.577206,4.26441278 C23.8953574,4.26441278 28.5088872,4.00408198 31.14519,5.69623216 C34.045123,7.51854775 34.8360138,9.99169032 34.8360138,12.9854945 L34.8360138,27.0433576 C34.8360138,28.6053423 34.4405684,31.2086503 31.6724505,33.0309659 C29.0361478,34.8532815 24.422618,35.1136123 20.8636093,35.1136123 L17.3046006,35.1136123 L17.3046006,35.2437777 Z M24.422618,9.60119413 C24.422618,8.42970554 24.422618,7.64871314 23.7635423,6.73755535 C22.9726515,5.82639756 21.9181304,5.69623216 20.4681638,5.69623216 L17.3046006,5.69623216 L17.3046006,33.9421237 L21.1272395,33.9421237 C22.3135758,33.9421237 23.2362817,33.5516275 23.8953574,32.7706351 C24.6862482,31.8594773 24.422618,30.5578233 24.422618,29.7768309 L24.422618,9.60119413 Z" id="Fill-1"></path>
                <path d="M112.09356,54.9832448 C112.09356,60.3458253 108.5995,63.8772807 99.1525971,63.7464861 C89.0586464,63.7464861 86.3410443,60.3458253 86.3410443,54.9832448 L86.3410443,18.8839227 C86.3410443,12.4749851 90.7409715,9.20511897 99.4114163,9.07432432 C107.693632,9.07432432 112.09356,13.259753 112.09356,18.8839227 L112.09356,54.9832448 Z M102.776067,14.3061101 C102.776067,11.2978333 101.61138,10.1206815 99.4114163,10.1206815 C96.9526335,10.1206815 95.5291276,11.1670386 95.5291276,14.3061101 L95.5291276,58.7762896 C95.5291276,60.9997985 96.3055854,62.8309236 99.0231875,62.8309236 C101.74079,62.8309236 102.776067,61.6537717 102.776067,58.7762896 L102.776067,14.3061101 Z" id="Fill-3"></path>
                <polygon id="Fill-5" points="194.179702 10.6824324 194.179702 21.2701223 192.901101 21.2701223 192.901101 13.0065595 185.101639 13.0065595 185.101639 62.4588183 187.27526 62.4588183 187.27526 63.75 173.722096 63.75 173.722096 62.4588183 175.895717 62.4588183 175.895717 13.0065595 168.224115 13.0065595 168.224115 21.2701223 166.817654 21.2701223 166.817654 10.6824324"></polygon>
                <polygon id="Fill-7" points="276.265844 10.6824324 276.265844 21.2701223 274.859384 21.2701223 274.859384 13.0065595 267.059922 13.0065595 267.059922 62.4588183 269.361402 62.4588183 269.361402 63.75 255.808239 63.75 255.808239 62.4588183 257.981859 62.4588183 257.981859 13.0065595 250.310257 13.0065595 250.310257 21.2701223 248.903797 21.2701223 248.903797 10.6824324"></polygon>
                <polygon id="Fill-9" points="342.193722 35.4731209 352.138653 35.4731209 352.138653 30.8248668 353.52339 30.8248668 353.52339 42.5746202 352.138653 42.5746202 352.138653 37.797248 342.193722 37.797248 342.193722 61.2967548 352.138653 61.2967548 352.138653 53.2914283 353.52339 53.2914283 353.52339 63.75 330.989939 63.75 330.989939 62.4588183 333.255873 62.4588183 333.255873 11.844496 330.989939 11.844496 330.989939 10.6824324 353.52339 10.6824324 353.52339 21.011886 352.138653 21.011886 352.138653 13.0065595 342.193722 13.0065595"></polygon>
                <path d="M427.833438,36.5773351 C427.833438,36.965516 431.410177,37.2243033 433.794669,38.777027 C436.311633,40.3297507 436.444104,42.1412617 436.444104,44.4703473 L436.444104,62.5854572 L438.828597,62.5854572 L438.828597,63.75 L427.038608,63.75 L427.038608,42.5294427 C427.038608,40.8473253 427.436023,39.2946016 425.71389,38.2594525 C424.654115,37.6124842 422.79951,37.7418779 421.607264,37.7418779 L418.427942,37.7418779 L418.427942,62.5854572 L420.679962,62.5854572 L420.679962,63.75 L406.637953,63.75 L406.637953,62.5854572 L409.022445,62.5854572 L409.022445,11.8631494 L406.637953,11.8631494 L406.637953,10.6986066 L423.196926,10.6986066 C424.389172,10.6986066 428.628269,10.4398194 431.012761,11.9925431 C433.662197,13.6746604 434.324556,15.8743523 434.324556,18.4622252 L434.324556,29.8488657 C434.324556,30.3664403 434.457028,32.9543131 432.337479,34.7658241 C430.350402,36.1891542 427.833438,36.3185478 427.833438,36.5773351 L427.833438,36.5773351 Z M424.786587,15.3567778 C424.786587,14.3216286 424.919059,13.5452668 424.2567,12.7689049 C423.461869,11.9925431 422.269623,11.8631494 421.342321,11.8631494 L418.427942,11.8631494 L418.427942,36.7067287 L421.872208,36.7067287 C422.931982,36.7067287 423.859285,36.3185478 424.389172,35.6715796 C425.051531,34.8952178 424.919059,33.6012813 424.919059,32.9543131 L424.919059,15.3567778 L424.786587,15.3567778 Z" id="Fill-11"></path>
                <polygon id="Fill-13" points="499.056253 44.7696291 489.321179 11.844496 487.114563 11.844496 487.114563 10.6824324 500.873467 10.6824324 500.873467 11.844496 498.66685 11.844496 506.714511 39.7340205 513.983366 11.844496 511.77675 11.844496 511.77675 10.6824324 519.305207 10.6824324 519.305207 11.844496 516.968789 11.844496 508.272123 44.8987473 508.272123 62.4588183 510.47874 62.4588183 510.47874 63.75 496.719835 63.75 496.719835 62.4588183 499.056253 62.4588183"></polygon>
                <path d="M604.610413,41.7467177 L604.610413,55.1570022 C604.610413,57.3703501 604.483679,59.0629103 602.836126,60.8856674 C600.681634,63.3594092 596.119181,63.75 594.218158,63.75 L572.419769,63.75 L572.419769,62.4480306 L574.827731,62.4480306 L574.827731,5.6821663 L572.419769,5.6821663 L572.419769,4.25 L593.20428,4.25 C595.738976,4.25 597.766733,4.77078775 599.667756,6.20295405 C602.836126,8.67669584 602.582656,11.8014223 602.582656,11.8014223 L602.582656,26.1230853 C602.582656,26.1230853 602.709391,28.9874179 600.681634,30.8101751 C598.020203,33.023523 595.865711,33.1537199 595.992446,33.4141138 C595.992446,33.8047046 599.667756,33.8047046 602.329187,36.1482495 C603.850005,37.5804158 604.610413,39.142779 604.610413,41.7467177 L604.610413,41.7467177 Z M584.839782,62.4480306 L590.162644,62.4480306 C590.416114,62.4480306 592.190401,62.4480306 593.077545,61.666849 C594.091423,60.8856674 594.344893,59.9742888 594.344893,58.8025164 L594.344893,37.8408096 C594.344893,36.9294311 594.344893,36.2784464 593.711219,35.4972648 C593.077545,34.8462801 592.063666,34.5858862 590.923053,34.5858862 L584.839782,34.5858862 L584.839782,62.4480306 Z M584.839782,5.6821663 L584.839782,33.023523 L590.035909,33.023523 C590.162644,33.023523 591.303257,33.023523 591.936932,32.3725383 C592.570606,31.7215536 592.443871,30.8101751 592.443871,30.1591904 L592.443871,9.19748359 C592.443871,8.93708972 592.570606,6.98413567 591.936932,6.33315098 C591.429992,5.6821663 589.148766,5.6821663 589.022031,5.6821663 L584.839782,5.6821663 Z" id="Fill-15"></path>
                <path d="M673.814108,11.844496 L671.474095,11.844496 L671.474095,10.6824324 L685.77417,10.6824324 L685.77417,11.844496 L683.174156,11.844496 L692.404205,62.5879365 L694.744217,62.5879365 L694.744217,63.75 L680.704144,63.75 L680.704144,62.5879365 L682.654154,62.5879365 L680.444142,47.739347 L669.004083,47.739347 L665.884066,62.5879365 L668.224078,62.5879365 L668.224078,63.75 L660.944041,63.75 L660.944041,62.5879365 L663.024051,62.5879365 L673.814108,11.844496 Z M669.524085,45.6734563 L680.05414,45.6734563 L675.114114,16.8801046 L669.524085,45.6734563 Z" id="Fill-17"></path>
                <path d="M769.319209,36.5773351 C769.319209,36.965516 772.763475,37.2243033 775.147967,38.777027 C777.664931,40.3297507 777.797403,42.1412617 777.797403,44.4703473 L777.797403,62.5854572 L780.049424,62.5854572 L780.049424,63.75 L768.259435,63.75 L768.259435,42.5294427 C768.259435,40.8473253 768.65685,39.2946016 766.934717,38.2594525 C765.874942,37.6124842 764.020337,37.7418779 762.828091,37.7418779 L759.648768,37.7418779 L759.648768,62.5854572 L761.900789,62.5854572 L761.900789,63.75 L747.858779,63.75 L747.858779,62.5854572 L750.243272,62.5854572 L750.243272,11.8631494 L747.858779,11.8631494 L747.858779,10.6986066 L764.417753,10.6986066 C765.477527,10.6986066 769.716624,10.4398194 772.233588,11.9925431 C774.883024,13.6746604 775.545383,15.8743523 775.545383,18.4622252 L775.545383,29.8488657 C775.545383,30.3664403 775.677855,32.9543131 773.558306,34.7658241 C771.968645,36.1891542 769.319209,36.3185478 769.319209,36.5773351 L769.319209,36.5773351 Z M766.40483,15.3567778 C766.40483,14.3216286 766.537301,13.5452668 765.874942,12.7689049 C765.080112,11.9925431 763.887866,11.8631494 762.960563,11.8631494 L760.046184,11.8631494 L760.046184,36.7067287 L763.49045,36.7067287 C764.550225,36.7067287 765.477527,36.3185478 766.007414,35.6715796 C766.669773,34.8952178 766.537301,33.6012813 766.537301,32.9543131 L766.537301,15.3567778 L766.40483,15.3567778 Z" id="Fill-19"></path>
                <polygon id="Fill-21" points="851.385663 63.75 839.82361 19.5915861 839.82361 62.4588183 842.215759 62.4588183 842.215759 63.75 834.773518 63.75 834.773518 62.4588183 837.03277 62.4588183 837.03277 11.844496 834.773518 11.844496 834.773518 10.6824324 846.601365 10.6824324 858.562109 56.6485007 858.562109 11.844496 856.302857 11.844496 856.302857 10.6824324 863.745098 10.6824324 863.745098 11.844496 861.352949 11.844496 861.352949 63.75"></polygon>
            </g>
        </g>
    </g>
</svg>