<?xml version="1.0" encoding="UTF-8"?>
<svg width="958px" height="138px" viewBox="0 0 958 138" version="1.1" xmlns="http://www.w3.org/2000/svg" xmlns:xlink="http://www.w3.org/1999/xlink">
    <!-- Generator: Sketch 54.1 (76490) - https://sketchapp.com -->
    <title>atom / logos / potterybarn kids / regular / white</title>
    <desc>Created with Sketch.</desc>
    <g id="Symbols" stroke="none" stroke-width="1" fill="none" fill-rule="evenodd">
        <g id="splash" transform="translate(-141.000000, -1195.000000)" fill="#FFFFFF">
            <g id="Group" transform="translate(0.000000, -52.000000)">
                <g id="atom-/-logos-/-potterybarn-kids-/-regular-/-white" transform="translate(131.000000, 1237.000000)">
                    <g id="No-modificar-â˜ ï¸ðŸš«â˜ ï¸ðŸš«â˜ ï¸ðŸš«" transform="translate(10.000000, 10.000000)">
                        <path d="M19.7503367,87.283 C19.7503367,91.87675 21.0628367,93.6245625 24.1253367,95.8120625 C26.9690867,97.9995625 31.3440867,98.87675 34.4065867,98.87675 C46.0003367,98.87675 52.7815867,88.1558125 52.7815867,73.283 C52.7815867,61.9058125 46.4378367,50.31425 33.5315867,50.31425 C27.4065867,50.31425 23.0315867,52.50175 21.5003367,54.2495625 C20.1878367,55.783 19.7503367,57.9705 19.7503367,62.56425 L19.7503367,87.283 Z M9.25033674,60.8120625 C9.25033674,55.3433125 9.25033674,54.4705 5.31283674,52.0620625 L4.00033674,51.18925 C3.34408674,50.533 3.34408674,49.00175 4.21908674,48.56425 C7.93783674,47.033 14.5003367,43.533 18.2190867,40.908 C19.0940867,40.908 19.5315867,41.1245625 19.9690867,42.00175 C19.7503367,44.62675 19.3128367,46.5933125 19.3128367,48.56425 C19.3128367,49.658 19.5315867,50.31425 20.6253367,50.31425 C22.3753367,49.43925 31.3440867,43.533 40.5315867,43.533 C54.9690867,43.533 64.1565867,55.12675 64.1565867,69.5620625 C64.1565867,89.2495625 49.7190867,103.468313 29.3753367,103.468313 C26.7503367,103.468313 22.8128367,103.25175 21.5003367,102.81425 C20.1878367,103.030813 19.5315867,103.908 19.5315867,106.749563 L19.5315867,121.624563 C19.5315867,131.68925 19.7503367,132.999563 25.0003367,133.655813 L30.4690867,134.31425 C31.5628367,134.9705 31.1253367,137.374563 30.2503367,137.81425 C23.4690867,137.5955 19.3128367,137.374563 14.2815867,137.374563 C9.25033674,137.374563 4.87533674,137.5955 0.937836742,137.81425 C-0.155913258,137.374563 -0.374663258,134.9705 0.719086742,134.31425 L3.78158674,133.87675 C9.03158674,133.2205 9.25033674,131.68925 9.25033674,121.408 L9.25033674,60.8120625 Z" id="Fill-1"></path>
                        <path d="M104.188055,47.9069062 C94.7818055,47.9069062 87.7818055,56.8756562 87.7818055,72.4069062 C87.7818055,85.3131562 93.6880555,99.3131562 106.156805,99.3131562 C118.625555,99.3131562 122.563055,86.1881562 122.563055,75.2506562 C122.563055,63.2194062 117.750555,47.9069062 104.188055,47.9069062 M134.813055,73.0631562 C134.813055,90.7819062 122.563055,103.688156 104.844305,103.688156 C88.4380555,103.688156 75.7505555,92.0944062 75.7505555,74.3756562 C75.7505555,56.4381562 89.3130555,43.7506562 105.938055,43.7506562 C121.906805,43.5319062 134.813055,55.5631562 134.813055,73.0631562" id="Fill-4"></path>
                        <path d="M166.750774,51.407125 C164.344524,51.407125 164.125774,51.844625 164.125774,54.907125 L164.125774,81.594625 C164.125774,89.907125 165.219524,97.344625 174.407024,97.344625 C175.938274,97.344625 177.032024,97.125875 178.344524,96.688375 C179.657024,96.250875 181.407024,94.719625 181.844524,94.719625 C182.938274,94.719625 183.594524,96.250875 183.157024,97.125875 C180.532024,100.188375 175.500774,103.688375 168.282024,103.688375 C156.032024,103.688375 153.407024,96.907125 153.407024,88.375875 L153.407024,55.563375 C153.407024,51.625875 153.188274,51.407125 150.344524,51.407125 L146.407024,51.407125 C145.532024,50.750875 145.313274,49.219625 145.969524,48.344625 C150.125774,47.032125 153.625774,45.282125 155.157024,43.969625 C156.907024,42.219625 159.750774,38.500875 161.063274,35.657125 C161.719524,35.438375 163.469524,35.438375 164.125774,36.313375 L164.125774,42.657125 C164.125774,45.282125 164.344524,45.282125 166.750774,45.282125 L182.500774,45.282125 C184.250774,46.594625 184.032024,50.313375 182.719524,51.188375 L166.750774,51.188375 L166.750774,51.407125 Z" id="Fill-6"></path>
                        <path d="M211.813493,51.407125 C209.407243,51.407125 209.188493,51.844625 209.188493,54.907125 L209.188493,81.594625 C209.188493,89.907125 210.282243,97.344625 219.469743,97.344625 C221.000993,97.344625 222.094743,97.125875 223.407243,96.688375 C224.719743,96.250875 226.469743,94.719625 226.907243,94.719625 C228.000993,94.719625 228.657243,96.250875 228.219743,97.125875 C225.594743,100.188375 220.563493,103.688375 213.344743,103.688375 C201.094743,103.688375 198.469743,96.907125 198.469743,88.375875 L198.469743,55.563375 C198.469743,51.625875 198.250993,51.407125 195.407243,51.407125 L191.469743,51.407125 C190.594743,50.750875 190.375993,49.219625 191.032243,48.344625 C195.188493,47.032125 198.688493,45.282125 200.219743,43.969625 C201.969743,42.219625 204.813493,38.500875 206.125993,35.657125 C206.782243,35.438375 208.532243,35.438375 209.188493,36.313375 L209.188493,42.657125 C209.188493,45.282125 209.407243,45.282125 211.813493,45.282125 L227.563493,45.282125 C229.313493,46.594625 228.875993,50.313375 227.782243,51.188375 L211.813493,51.188375 L211.813493,51.407125 Z" id="Fill-8"></path>
                        <path d="M258.625774,60.8129375 C269.125774,60.8129375 272.188274,60.1566875 273.500774,59.2816875 C273.938274,59.0629375 274.375774,58.4066875 274.375774,56.6566875 C274.375774,52.7191875 271.750774,47.6879375 263.438274,47.6879375 C255.125774,47.6879375 247.907024,55.3441875 247.688274,60.1566875 C247.688274,60.3754375 247.688274,60.8129375 248.782024,60.8129375 L258.625774,60.8129375 Z M249.875774,65.1879375 C246.157024,65.1879375 245.938274,65.4066875 245.938274,69.1254375 C245.938274,83.5629375 254.250774,95.8129375 269.563274,95.8129375 C274.157024,95.8129375 278.313274,94.5004375 282.688274,88.8129375 C284.000774,88.377625 285.094524,89.2504375 285.313274,90.565125 C280.719524,100.187937 270.438274,103.690125 263.000774,103.690125 C253.813274,103.690125 246.594524,99.7504375 242.438274,94.2816875 C238.282024,88.8129375 236.532024,82.0316875 236.532024,75.6879375 C236.532024,58.1879375 248.125774,43.5316875 265.188274,43.5316875 C277.438274,43.5316875 285.313274,51.8441875 285.313274,60.3754375 C285.313274,62.3441875 285.094524,63.4379375 284.657024,64.0941875 C284.219524,64.9691875 282.250774,65.1879375 276.344524,65.1879375 L249.875774,65.1879375 Z" id="Fill-10"></path>
                        <path d="M303.031587,60.8129375 C303.031587,55.3441875 303.031587,54.4691875 299.094087,52.0629375 L297.781587,51.1879375 C297.125337,50.5316875 297.125337,49.0004375 298.000337,48.5629375 C301.281587,47.4691875 308.719087,43.7504375 312.437837,41.5629375 C313.094087,41.7816875 313.531587,42.0004375 313.531587,42.6566875 L313.531587,50.9691875 C313.531587,51.6254375 313.750337,52.0629375 313.969087,52.2816875 C319.000337,48.1254375 324.250337,43.7504375 329.719087,43.7504375 C333.219087,43.7504375 336.062837,45.9379375 336.062837,49.4379375 C336.062837,54.0316875 332.125337,56.0004375 329.937837,56.0004375 C328.625337,56.0004375 327.750337,55.5629375 326.875337,54.9066875 C324.687837,53.3754375 322.719087,52.7191875 320.531587,52.7191875 C318.344087,52.7191875 316.594087,54.0316875 315.500337,55.5629375 C314.187837,57.5316875 313.750337,61.6879375 313.750337,66.5004375 L313.750337,85.7504375 C313.750337,96.033875 313.969087,97.7816875 319.437837,98.221375 L324.469087,98.6566875 C325.562837,99.315125 325.125337,101.719187 324.250337,102.156687 C317.469087,101.937937 313.531587,101.719187 308.500337,101.719187 C303.469087,101.719187 299.094087,101.937937 295.375337,102.156687 C294.281587,101.719187 294.062837,99.315125 295.156587,98.6566875 L297.781587,98.221375 C303.031587,97.3441875 303.250337,96.033875 303.250337,85.7504375 L303.250337,60.8129375 L303.031587,60.8129375 Z" id="Fill-12"></path>
                        <path d="M343.719305,130.812937 C343.719305,126.875437 346.344305,125.125437 349.406805,125.125437 L352.031805,125.125437 C354.219305,125.125437 355.750555,124.031687 356.625555,122.500437 C360.781805,116.156687 363.625555,110.031687 364.938055,106.750437 C365.375555,105.656687 366.250555,102.596375 366.250555,100.625437 C366.250555,97.7816875 365.594305,96.033875 363.844305,90.7816875 L352.688055,60.3754375 C350.281805,53.5941875 349.188055,50.3129375 344.375555,49.2191875 L340.875555,48.5629375 C340.000555,47.9066875 340.219305,45.5004375 341.313055,45.0629375 C345.906805,45.2816875 350.063055,45.5004375 354.875555,45.5004375 C358.813055,45.5004375 362.750555,45.2816875 367.344305,45.0629375 C368.438055,45.5004375 368.656805,47.9066875 367.563055,48.5629375 L364.063055,49.2191875 C362.094305,49.6566875 361.000555,50.0941875 361.000555,50.9691875 C361.000555,52.7191875 364.281805,61.9066875 365.156805,64.3129375 L369.750555,77.440125 C370.625555,79.627625 373.250555,87.283875 373.906805,87.5004375 C374.344305,87.283875 376.531805,82.908875 379.156805,77.0004375 L383.969305,65.8441875 C387.031805,58.4066875 389.000555,53.1566875 389.000555,51.6254375 C389.000555,50.5316875 388.125555,49.6566875 385.500555,49.2191875 L381.125555,48.5629375 C380.031805,47.9066875 380.250555,45.5004375 381.344305,45.0629375 C385.938055,45.2816875 390.094305,45.5004375 393.813055,45.5004375 C397.313055,45.5004375 400.594305,45.2816875 404.531805,45.0629375 C405.625555,45.7191875 405.844305,47.6879375 404.750555,48.5629375 L402.344305,49.0004375 C397.750555,49.8754375 395.125555,54.0316875 390.313055,64.0941875 L382.438055,80.5004375 C377.844305,90.1254375 366.031805,114.844187 359.031805,130.156687 C356.625555,135.625437 353.125555,136.937937 349.844305,136.937937 C345.688055,136.937937 343.719305,134.315125 343.719305,130.812937" id="Fill-14"></path>
                        <path d="M462.063274,82.25 C462.063274,87.2834375 463.157024,91.6584375 465.563274,94.71875 C467.969524,97.7834375 471.907024,99.3146875 476.282024,99.3146875 C489.625774,99.3146875 494.875774,87.9396875 494.875774,75.6875 C494.875774,61.03125 487.438274,49.6584375 473.219524,49.6584375 C468.844524,49.6584375 465.563274,50.7521875 463.594524,51.8459375 C462.063274,52.9396875 461.844524,54.46875 461.844524,59.9375 L461.844524,82.25 L462.063274,82.25 Z M451.563274,21.4375 C451.563274,13.125 451.344524,12.25 447.188274,9.625 L445.875774,8.75 C445.219524,8.3125 445.219524,6.34375 445.875774,5.9084375 C449.157024,4.59375 455.938274,2.84375 461.407024,0 C462.063274,0 462.500774,0.21875 462.719524,0.875 C462.500774,5.9084375 462.063274,12.25 462.063274,18.59375 L462.063274,45.5 C462.063274,47.90625 462.719524,48.5646875 463.594524,48.5646875 C467.313274,46.3771875 473.000774,43.96875 480.000774,43.96875 C496.188274,43.96875 507.125774,56.2209375 507.125774,71.75 C507.125774,90.5646875 493.563274,103.90625 474.313274,103.90625 C469.063274,103.90625 465.125774,103.03125 462.282024,102.158438 C459.219524,101.28125 457.469524,100.408437 456.375774,100.408437 C455.282024,100.408437 454.188274,101.502187 453.313274,102.595937 C453.094524,102.8125 453.094524,102.8125 452.657024,102.8125 C452.000774,102.8125 451.563274,102.595937 451.125774,101.9375 C451.344524,99.9709375 451.344524,97.34375 451.344524,89.90625 L451.344524,21.4375 L451.563274,21.4375 Z" id="Fill-16"></path>
                        <path d="M538.187837,97.12675 C541.031587,97.12675 545.406587,94.93925 546.937837,93.6245625 C548.687837,91.87675 548.687837,89.9058125 548.687837,86.8455 L548.906587,78.533 C548.906587,77.00175 548.252524,76.7808125 547.375337,76.7808125 C546.500337,76.7808125 544.094087,77.43925 541.469087,78.0955 C533.156587,80.93925 529.000337,83.12675 529.000337,88.5955 C529.219087,90.9995625 530.969087,97.12675 538.187837,97.12675 L538.187837,97.12675 Z M547.158774,72.18925 C549.346274,71.533 549.346274,70.2183125 549.562837,68.0308125 L549.781587,61.4705 C550.000337,56.2205 548.252524,49.00175 539.502524,49.00175 C535.562837,49.00175 530.752524,50.9683125 530.312837,55.3433125 C530.094087,57.5308125 530.094087,59.283 529.000337,60.158 C526.812837,61.9058125 523.096274,62.783 520.908774,62.783 C519.594087,62.783 518.937837,62.12675 518.937837,60.8120625 C518.937837,53.37675 534.906587,43.3120625 545.406587,43.3120625 C555.687837,43.3120625 560.719087,49.2205 560.283774,59.93925 L559.406587,84.658 C559.190024,91.2205 560.500337,97.12675 565.969087,97.12675 C567.281587,97.12675 568.594087,96.68925 569.469087,96.25175 C570.127524,95.8120625 570.781587,95.158 571.221274,95.158 C571.875337,95.158 572.315024,96.033 572.315024,96.9058125 C572.315024,97.5620625 567.281587,103.25175 560.283774,103.25175 C556.781587,103.25175 553.500337,101.937062 551.094087,98.87675 C550.440024,97.9995625 549.562837,96.9058125 548.906587,96.9058125 C547.812837,96.9058125 546.281587,98.2205 543.437837,99.7495625 C540.375337,101.50175 537.094087,103.25175 533.156587,103.25175 C529.000337,103.25175 525.719087,102.158 523.312837,99.9705 C520.687837,97.5620625 518.937837,94.06425 518.937837,90.12675 C518.937837,84.658 521.562837,81.37675 530.752524,78.0955 L547.158774,72.18925 Z" id="Fill-19"></path>
                        <path d="M586.094962,60.8129375 C586.094962,55.3441875 586.094962,54.4691875 582.157462,52.0629375 L580.844962,51.1879375 C580.188712,50.5316875 580.188712,49.0004375 581.063712,48.5629375 C584.344962,47.4691875 591.782462,43.7504375 595.501212,41.5629375 C596.157462,41.7816875 596.594962,42.0004375 596.594962,42.6566875 L596.594962,50.9691875 C596.594962,51.6254375 596.811524,52.0629375 597.032462,52.2816875 C602.063712,48.1254375 607.313712,43.7504375 612.563712,43.7504375 C616.063712,43.7504375 618.907462,45.9379375 618.907462,49.4379375 C618.907462,54.0316875 614.969962,56.0004375 612.782462,56.0004375 C611.469962,56.0004375 610.594962,55.5629375 609.719962,54.9066875 C607.532462,53.3754375 605.344962,52.7191875 603.374024,52.7191875 C601.186524,52.7191875 599.438712,54.0316875 598.344962,55.5629375 C597.032462,57.5316875 596.594962,61.6879375 596.594962,66.5004375 L596.594962,85.7504375 C596.594962,96.033875 596.811524,97.7816875 602.280274,98.221375 L607.313712,98.6566875 C608.407462,99.315125 607.969962,101.719187 607.094962,102.156687 C600.313712,101.937937 596.376212,101.719187 591.342774,101.719187 C586.313712,101.719187 581.938712,101.937937 578.217774,102.156687 C577.124024,101.719187 576.907462,99.315125 578.001212,98.6566875 L580.626212,98.221375 C585.874024,97.3441875 586.094962,96.033875 586.094962,85.7504375 L586.094962,60.8129375 Z" id="Fill-21"></path>
                        <path d="M634.875774,60.8129375 C634.875774,55.3441875 634.875774,54.4691875 630.938274,52.0629375 L629.625774,51.1879375 C628.969524,50.5316875 628.969524,49.0004375 629.844524,48.5629375 C633.125774,47.4691875 641.219524,43.7504375 644.063274,41.5629375 C644.719524,41.5629375 645.375774,41.7816875 645.594524,42.6566875 C645.375774,45.9379375 645.375774,48.1254375 645.375774,49.4379375 C645.375774,50.3129375 646.032024,50.9691875 646.907024,50.9691875 C652.813274,47.2504375 659.594524,43.7504375 666.813274,43.7504375 C678.625774,43.7504375 683.438274,51.8441875 683.438274,61.4691875 L683.438274,85.9691875 C683.438274,96.2504375 683.657024,97.5629375 688.907024,98.4379375 L691.969524,98.8754375 C693.063274,99.5316875 692.625774,101.937937 691.750774,102.375437 C687.375774,102.156687 683.438274,101.937937 678.407024,101.937937 C673.375774,101.937937 669.000774,102.156687 665.282024,102.375437 C664.188274,101.937937 663.969524,99.5316875 665.063274,98.8754375 L667.688274,98.4379375 C672.938274,97.5629375 673.157024,96.2504375 673.157024,85.9691875 L673.157024,64.5316875 C673.157024,56.4379375 669.438274,50.5316875 659.813274,50.5316875 C654.344524,50.5316875 649.750774,52.7191875 647.782024,55.5629375 C646.032024,57.9691875 645.594524,59.9379375 645.594524,64.0941875 L645.594524,85.7504375 C645.594524,96.033875 645.813274,97.3441875 651.063274,98.221375 L653.688274,98.6566875 C654.782024,99.315125 654.344524,101.719187 653.469524,102.156687 C649.532024,101.937937 645.594524,101.719187 640.563274,101.719187 C635.532024,101.719187 631.157024,101.937937 627.219524,102.156687 C626.125774,101.719187 625.907024,99.315125 627.000774,98.6566875 L630.063274,98.221375 C635.313274,97.5629375 635.532024,96.033875 635.532024,85.7504375 L635.532024,60.8129375 L634.875774,60.8129375 Z" id="Fill-23"></path>
                        <path d="M746.438274,21.4379375 C746.438274,13.1254375 746.219524,12.2504375 742.063274,9.6254375 L740.532024,8.7504375 C739.875774,8.3129375 739.875774,6.3441875 740.532024,5.9066875 C744.032024,4.8129375 750.813274,2.6254375 755.844524,0.0004375 C756.500774,0.0004375 756.938274,0.2191875 757.157024,0.8754375 C756.938274,5.0316875 756.719524,12.2504375 756.719524,18.5941875 L756.719524,67.3754375 C756.719524,69.1254375 756.938274,69.5629375 759.344524,69.5629375 C762.407024,69.5629375 765.250774,68.0316875 768.969524,64.0941875 L774.875774,57.7504375 C778.813274,53.3754375 779.907024,51.8441875 779.907024,51.1879375 C779.907024,50.5316875 779.250774,50.0941875 776.844524,49.8754375 L773.344524,49.4379375 C772.032024,49.0004375 772.032024,46.3754375 773.344524,45.9379375 L776.625774,45.9379375 C782.969524,45.9379375 791.282024,45.7191875 799.157024,44.8441875 C800.250774,45.2816875 800.250774,47.6879375 799.375774,48.3441875 L794.782024,49.2191875 C791.938274,49.8754375 789.532024,51.1879375 785.813274,54.2504375 C780.344524,58.6254375 775.532024,63.8754375 772.907024,66.2816875 C771.157024,67.8129375 771.157024,68.4691875 771.813274,69.783875 C774.219524,73.065125 776.407024,75.6879375 781.438274,81.1566875 C786.907024,87.5004375 791.938274,92.9691875 794.782024,95.5941875 C796.750774,97.3441875 799.594524,98.221375 802.219524,98.6566875 L804.188274,98.8754375 C805.282024,99.5316875 805.063274,101.937937 803.969524,102.375437 C799.813274,102.156687 795.000774,101.937937 790.407024,101.937937 C784.719524,101.937937 779.688274,102.156687 775.532024,102.375437 C774.438274,101.719187 774.219524,99.315125 775.313274,98.8754375 L777.938274,98.4379375 C780.125774,98.221375 781.438274,97.7816875 781.438274,96.9066875 C781.438274,96.033875 780.782024,95.1566875 779.032024,92.9691875 L763.719524,75.252625 C762.407024,73.9379375 760.875774,73.2816875 759.344524,73.2816875 C756.719524,73.2816875 756.719524,73.7191875 756.719524,78.0941875 L756.719524,85.9691875 C756.719524,96.2504375 756.938274,97.5629375 762.188274,98.4379375 L765.688274,98.8754375 C766.782024,99.5316875 766.344524,101.937937 765.469524,102.375437 C760.875774,102.156687 756.719524,101.937937 751.688274,101.937937 C746.657024,101.937937 742.282024,102.156687 738.125774,102.375437 C737.032024,101.937937 736.813274,99.5316875 737.907024,98.8754375 L740.969524,98.4379375 C746.219524,97.7816875 746.438274,96.2504375 746.438274,85.9691875 L746.438274,21.4379375 Z" id="Fill-25"></path>
                        <path d="M829.563274,14.6575625 C829.563274,19.6888125 826.063274,21.8763125 822.125774,21.8763125 C817.750774,21.8763125 814.907024,18.8138125 814.907024,14.8763125 C814.907024,10.2825625 818.407024,7.4388125 822.563274,7.4388125 C826.719524,7.4388125 829.563274,10.7200625 829.563274,14.6575625 L829.563274,14.6575625 Z M817.750774,60.8138125 C817.750774,55.3450625 817.750774,54.4700625 813.813274,52.0638125 L812.500774,51.1888125 C811.844524,50.5325625 811.844524,49.0013125 812.719524,48.5638125 C816.000774,47.4700625 824.094524,43.7513125 827.375774,41.5638125 C828.032024,41.5638125 828.688274,41.7825625 828.907024,42.4388125 C828.688274,47.4700625 828.250774,54.2513125 828.250774,60.1575625 L828.250774,85.7513125 C828.250774,96.0325625 828.469524,97.3450625 833.719524,98.2200625 L836.782024,98.655375 C837.875774,99.3138125 837.438274,101.720062 836.563274,102.157562 C832.188274,101.936625 828.250774,101.720062 823.219524,101.720062 C818.188274,101.720062 813.813274,101.936625 809.875774,102.157562 C808.782024,101.720062 808.563274,99.3138125 809.657024,98.655375 L812.719524,98.2200625 C817.969524,97.561625 818.188274,96.0325625 818.188274,85.7513125 L818.188274,60.8138125 L817.750774,60.8138125 Z" id="Fill-28"></path>
                        <path d="M891.689149,59.5013125 C891.689149,56.6575625 891.030712,55.3450625 890.157899,54.0325625 C887.970399,50.9700625 883.811962,48.1263125 878.126649,48.1263125 C865.218212,48.1263125 858.439149,59.2825625 858.439149,71.7513125 C858.439149,84.6575625 865.657899,96.9075625 879.657899,96.9075625 C883.595399,96.9075625 888.407899,95.1575625 890.595399,92.9700625 C891.468212,92.092875 891.689149,89.905375 891.689149,87.717875 L891.689149,59.5013125 Z M902.189149,80.7200625 C902.189149,91.8763125 902.405712,97.1263125 906.343212,97.1263125 C907.874462,97.1263125 910.282899,96.467875 912.470399,95.8138125 C913.564149,96.0325625 913.564149,99.749125 912.249462,100.407562 C906.343212,101.282562 897.376649,103.470062 893.439149,105.001312 C892.561962,105.001312 891.907899,104.563812 891.907899,103.907562 L891.907899,101.501312 C891.907899,99.3138125 891.907899,97.561625 891.689149,97.1263125 L891.030712,97.1263125 C884.689149,101.501312 879.876649,103.688812 873.095399,103.688812 C857.345399,103.688812 846.845399,91.2200625 846.845399,76.3450625 C846.845399,56.4388125 861.936962,43.5325625 881.186962,43.5325625 C885.999462,43.5325625 889.064149,44.1888125 890.814149,44.8450625 C891.468212,44.8450625 891.689149,43.9700625 891.689149,42.8763125 L891.689149,21.4388125 C891.689149,13.1263125 891.468212,12.2513125 887.314149,9.6263125 L885.999462,8.7513125 C885.345399,8.3138125 885.345399,6.3450625 885.999462,5.9075625 C889.501649,4.8138125 896.282899,2.6263125 901.311962,0.0013125 C901.968212,0.0013125 902.405712,0.2200625 902.845399,0.8763125 C902.626649,5.0325625 902.405712,12.2513125 902.405712,18.5950625 L902.405712,80.7200625 L902.189149,80.7200625 Z" id="Fill-30"></path>
                        <path d="M954.688712,46.1573437 C956.001212,49.2198437 956.876212,53.8135937 956.876212,57.7510937 C956.219962,58.8448437 954.251212,59.0635937 953.374024,58.1885937 C950.969962,51.8448437 946.594962,47.9073437 940.907462,47.9073437 C935.438712,47.9073437 931.719962,51.4073437 931.719962,56.6573437 C931.719962,62.5635937 937.626212,65.6260937 942.657462,68.4698437 C950.092774,72.8448437 957.094962,77.6573437 957.094962,87.7198437 C957.094962,98.4385937 947.032462,103.907344 936.532462,103.907344 C929.751212,103.907344 924.936524,102.376094 921.219962,99.5323437 C920.126212,96.9073437 919.251212,89.9073437 919.467774,85.0948437 C920.126212,84.2198437 922.094962,84.0010937 922.749024,84.8760937 C925.157462,92.7510937 929.751212,99.5323437 937.844962,99.5323437 C942.876212,99.5323437 947.469962,96.4698437 947.469962,90.3448437 C947.469962,83.7823437 941.782462,80.2823437 936.532462,77.2198437 C928.217774,72.6260937 922.532462,67.5948437 922.532462,59.7198437 C922.532462,49.4385937 931.063712,43.5323437 941.782462,43.5323437 C948.126212,43.5323437 953.374024,45.0635937 954.688712,46.1573437" id="Fill-32"></path>
                    </g>
                </g>
            </g>
        </g>
    </g>
</svg>