<?xml version="1.0" encoding="UTF-8"?>
<svg width="641px" height="125px" viewBox="0 0 641 125" version="1.1" xmlns="http://www.w3.org/2000/svg" xmlns:xlink="http://www.w3.org/1999/xlink">
    <!-- Generator: Sketch 55.2 (78181) - https://sketchapp.com -->
    <title>atom / logos / potterybarnteen / regular / white</title>
    <desc>Created with Sketch.</desc>
    <g id="Symbols" stroke="none" stroke-width="1" fill="none" fill-rule="evenodd">
        <g id="splash" transform="translate(-301.000000, -1283.000000)" fill="#FFFFFF">
            <g id="Group">
                <g id="atom-/-logos-/-potterybarnteen-/-regular-/-white" transform="translate(293.000000, 1274.000000)">
                    <path d="M60.9016391,63.6831542 L77.3840389,63.6831542 C90.8688503,63.6831542 99.5819463,56.0262479 99.5819463,44.1722063 C99.5819463,32.5784979 91.6659429,24.4741438 80.3324864,24.4741438 L61.5296295,24.4741438 L61.0765225,24.4741438 L60.9016391,24.9356438 L60.9016391,63.6831542 Z M60.9016391,79.0036229 L60.9016391,109.454488 C60.9016391,114.578321 63.8226256,117.640196 68.7143024,117.640196 L80.4416078,117.640196 L80.4416078,132.960665 L9.06388487,132.960665 L9.06388487,117.640196 L19.6826319,117.640196 C24.5743087,117.640196 27.5010764,114.578321 27.5010764,109.454488 L27.5010764,32.6687271 C27.5010764,27.5389771 24.5743087,24.4741438 19.6826319,24.4741438 L8.87816158,24.4741438 L8.87816158,9.16255 L85.4915469,9.16255 C117.893395,9.16255 132.983232,20.2244979 132.983232,43.9850917 C132.983232,68.2034875 117.199643,79.0036229 81.8059875,79.0036229 L60.9016391,79.0036229 Z" id="Fill-1"></path>
                    <path d="M341.471089,89.7422034 L328.675866,89.7422034 L328.675866,103.444554 C328.675866,110.707118 327.519457,118.128783 318.917048,118.128783 C314.542227,118.128783 311.718163,114.949801 311.718163,110.02147 L311.718163,57.3311363 L334.304758,57.3311363 L334.304758,44.2288223 L311.718163,44.2288223 L311.718163,9.2607811 L295.290204,9.2607811 C292.946312,32.1697537 284.9062,43.5265067 270.825832,44.0515387 L270.825832,57.3311363 L283.137923,57.3311363 L283.137923,105.51665 C283.137923,123.573054 292.962589,133.125152 311.57093,133.125152 C331.977883,133.125152 341.471089,124.351132 341.471089,105.51665 L341.471089,89.7422034 Z" id="Fill-7"></path>
                    <path d="M226.286594,96.9998302 C226.286594,78.7077156 213.366944,76.3610177 202.108953,76.3610177 L189.687219,76.3610177 L189.237277,76.3610177 L189.056283,76.8188198 L189.056283,117.640122 L202.108953,117.640122 C213.366944,117.640122 226.286594,115.293424 226.286594,96.9998302 L226.286594,96.9998302 Z M189.056283,61.0427677 L199.884685,61.0427677 C214.991532,61.0427677 222.020507,55.2022781 222.020507,42.6641219 C222.020507,30.0838094 215.195059,24.4748094 199.884685,24.4748094 L189.687219,24.4748094 L189.237277,24.4748094 L189.056283,24.9355698 L189.056283,61.0427677 Z M261.558678,100.01733 C261.558678,123.724674 247.698439,132.960591 212.125425,132.960591 L137.842889,132.960591 L137.842889,117.640122 L147.590414,117.640122 C152.587019,117.640122 155.459668,114.651466 155.459668,109.454414 L155.459668,32.6686531 C155.459668,27.5396427 152.516512,24.4748094 147.590414,24.4748094 L137.656079,24.4748094 L137.656079,9.16247604 L216.941037,9.16247604 C241.52646,9.16247604 255.62221,19.5832052 255.62221,37.7584656 C255.62221,52.4525073 246.380597,62.749726 229.593193,66.756049 L229.241381,66.8396219 L229.109815,67.2397365 L229.109815,68.2315177 L230.520698,68.6723094 C245.775829,73.4137781 261.558678,78.3157365 261.558678,100.01733 L261.558678,100.01733 Z" id="Fill-4"></path>
                    <path d="M376.420118,79.3204133 L405.296005,79.3204133 L405.296005,73.6506369 C405.296005,63.40794 399.793605,57.0511624 390.946368,57.0511624 C382.001814,57.0511624 376.420118,63.40794 376.420118,73.6506369 L376.420118,79.3204133 Z M346.256757,88.7448677 C346.256757,62.2055045 364.065849,44.375 390.5917,44.375 C417.296327,44.375 434.654875,63.0648059 435.040541,91.9921765 L376.066171,91.9921765 L376.066171,92.9409274 C376.066171,104.271682 378.028379,119.349049 394.888085,119.349049 C401.32257,119.349049 411.48972,114.317883 413.596102,103.707124 L432.531192,103.707124 C429.184914,123.987224 409.205283,133.125 390.5917,133.125 C361.989743,133.125 346.256757,117.360631 346.256757,88.7448677 L346.256757,88.7448677 Z" id="Fill-10"></path>
                    <path d="M474.098139,79.3204133 L502.958167,79.3204133 L502.958167,73.6506369 C502.958167,63.40794 497.455767,57.0511624 488.60853,57.0511624 C479.648117,57.0511624 474.098139,63.40794 474.098139,73.6506369 L474.098139,79.3204133 Z M443.918919,88.7448677 C443.918919,62.2055045 461.743149,44.375 488.254583,44.375 C514.958489,44.375 532.317037,63.0648059 532.702703,91.9921765 L473.727612,91.9921765 L473.727612,92.9409274 C473.727612,104.271682 475.691262,119.349049 492.550247,119.349049 C498.984732,119.349049 509.151882,114.317883 511.258985,103.707124 L530.193354,103.707124 C526.847797,123.987224 506.866724,133.125 488.254583,133.125 C459.652626,133.125 443.918919,117.360631 443.918919,88.7448677 L443.918919,88.7448677 Z" id="Fill-12"></path>
                    <path d="M605.896202,78.8017962 L605.896202,110.639926 C605.896202,115.268351 604.986908,119.552962 598.35106,119.552962 L596.071536,119.552962 L596.071536,132.44334 L648.081077,132.44334 L648.081077,119.552962 L642.054138,119.552962 C635.41681,119.552962 634.492719,115.268351 634.492719,110.639926 L634.492719,75.4576366 C634.492719,54.6528466 625.922124,44.9537395 607.530564,44.9537395 C593.513084,44.9537395 584.877381,49.6097584 576.720371,61.5760924 L576.440702,61.9840441 L575.582459,61.9840441 L574.624334,61.9840441 L574.624334,47.7206513 L533.36429,47.7206513 L533.36429,60.619979 L539.952047,60.619979 C546.589374,60.619979 547.497189,64.9135399 547.497189,69.5412185 L547.497189,110.639926 C547.497189,115.268351 546.589374,119.552962 539.952047,119.552962 L533.545557,119.552962 L533.545557,132.44334 L586.462172,132.44334 L586.462172,119.552962 L583.655124,119.552962 C577.018536,119.552962 576.094445,115.268351 576.094445,110.639926 L576.094445,76.3980882 C576.094445,68.3665861 581.724077,59.6951891 590.821455,59.6951891 C604.739053,59.6951891 605.896202,69.1332668 605.896202,78.8017962" id="Fill-14"></path>
                </g>
            </g>
        </g>
    </g>
</svg>