<?xml version="1.0" encoding="UTF-8"?>
<svg width="831px" height="377px" viewBox="0 0 831 377" version="1.1" xmlns="http://www.w3.org/2000/svg" xmlns:xlink="http://www.w3.org/1999/xlink">
    <!-- Generator: Sketch 55.2 (78181) - https://sketchapp.com -->
    <title>atom / logos / williamssonoma / regular / white</title>
    <desc>Created with Sketch.</desc>
    <g id="Symbols" stroke="none" stroke-width="1" fill="none" fill-rule="evenodd">
        <g id="splash" transform="translate(-206.000000, -1156.000000)" fill="#FFFFFF">
            <g id="atom-/-logos-/-williamssonoma-/-regular-/-white" transform="translate(195.000000, 1145.000000)">
                <path d="M166.00506,16.5504484 C164.694894,16.5504484 163.220958,16.8817887 161.58325,17.3787992 C159.945542,17.8758097 158.307835,18.7041604 156.997669,19.5325112 C155.19619,20.6922023 153.722253,22.0175635 152.739629,23.5085949 C151.593234,24.9996263 150.77438,26.9876682 149.955526,29.6383906 C146.352569,41.5666418 142.09453,55.4829347 137.345178,71.2215994 C132.595826,87.1259342 127.355161,104.02429 121.786955,121.916667 L114.744813,121.916667 L87.2313252,37.590558 L58.8989838,121.916667 L52.1843827,121.916667 C47.1074891,103.85862 41.8668248,85.1378924 36.4623898,65.9201545 C31.0579547,46.5367464 27.454998,33.6144743 25.6535197,26.9876682 C25.1622074,25.3309666 24.5071243,24.0056054 23.6882705,22.6802441 C22.8694168,21.5205531 21.5592507,20.360862 20.0853138,19.3668411 C18.7751478,18.5384903 17.3012109,17.8758097 15.6635033,17.3787992 C14.0257957,16.8817887 12.3880882,16.7161186 11.0779221,16.5504484 L11.0779221,11.0833333 L55.1322563,11.0833333 L55.1322563,16.5504484 C51.2017581,16.7161186 47.9263429,17.213129 45.3060108,17.7101395 C42.5219079,18.20715 41.2117418,19.2011709 41.2117418,20.5265321 C41.2117418,21.0235426 41.2117418,21.6862232 41.3755126,22.514574 C41.5392833,23.3429248 41.7030541,24.0056054 41.7030541,24.5026158 C42.8494494,28.97571 44.9784693,36.5965371 47.9263429,47.0337569 C50.8742166,57.4709766 55.2960271,73.0439711 61.1917744,93.9184106 L88.2139497,12.4086946 L95.7474047,12.4086946 L123.097121,95.5751121 C126.700078,82.8185102 129.975493,71.5529397 132.595826,62.1097409 C135.216158,52.5008719 137.508948,44.3830344 139.146656,37.590558 C140.293051,32.7861236 141.111905,29.4727205 141.439447,27.8160189 C141.766988,25.9936472 141.930759,24.5026158 141.930759,23.3429248 C141.930759,21.5205531 140.784363,20.1951918 138.327802,18.8698306 C136.035011,17.7101395 132.104513,16.8817887 126.863849,16.5504484 L126.863849,11.0833333 L166.168831,11.0833333 L166.168831,16.5504484 L166.00506,16.5504484 Z" id="Fill-1"></path>
                <path d="M226.930678,121.916667 L177.246753,121.916667 L177.246753,116.375 C178.58055,116.207071 180.747969,116.039141 183.248838,115.871212 C185.749707,115.703283 187.750402,115.367424 188.917474,114.863636 C190.58472,114.191919 191.918516,113.184343 192.585415,112.008838 C193.419037,110.833333 193.752487,109.15404 193.752487,107.138889 L193.752487,26.8686869 C193.752487,25.0214646 193.419037,23.510101 192.918864,22.334596 C192.41869,21.1590909 191.084893,20.1515152 188.917474,19.3118687 C187.416953,18.6401515 185.416258,18.1363636 183.082114,17.6325758 C180.747969,17.1287879 178.747274,16.7929293 177.246753,16.625 L177.246753,11.0833333 L226.930678,11.0833333 L226.930678,16.625 C225.263432,16.625 223.429462,16.7929293 221.262042,17.1287879 C219.094623,17.4646465 217.093928,17.9684343 215.426682,18.4722222 C213.425987,19.1439394 212.09219,20.1515152 211.425292,21.4949495 C210.758394,22.8383838 210.424945,24.5176768 210.424945,26.1969697 L210.424945,106.467172 C210.424945,108.146465 210.758394,109.657828 211.592017,111.001263 C212.258915,112.344697 213.592712,113.352273 215.426682,114.191919 C216.593754,114.527778 218.261,115.031566 220.761869,115.535354 C223.262737,116.039141 225.263432,116.375 227.097403,116.375 L227.097403,121.916667 L226.930678,121.916667 Z" id="Fill-3"></path>
                <path d="M326.798701,88.8846445 L324.462115,121.916667 L238.175325,121.916667 L238.175325,116.383384 C239.343618,116.215709 241.179507,116.048033 243.516093,115.880358 C245.852679,115.545008 247.521669,115.209657 248.523064,114.874307 C250.025155,114.203606 251.193448,113.197554 251.861044,111.856152 C252.52864,110.51475 252.862438,108.837998 252.862438,106.825895 L252.862438,27.5155068 C252.862438,25.6710792 252.52864,24.162002 252.027943,22.8206001 C251.360347,21.4791982 250.192054,20.3054715 248.523064,19.4670953 C247.35477,18.7963944 245.68578,18.2933686 243.516093,17.6226677 C241.346406,16.9519667 239.510517,16.6166162 238.175325,16.6166162 L238.175325,11.0833333 L284.74015,11.0833333 L284.74015,16.6166162 C283.238059,16.6166162 281.402169,16.9519667 279.065583,17.4549924 C276.728997,17.9580182 275.060007,18.2933686 274.058613,18.6287191 C272.222724,19.2994201 271.054431,20.3054715 270.386834,21.8145487 C269.719238,23.3236258 269.38544,25.0003782 269.38544,26.6771306 L269.38544,101.124937 C269.38544,104.478442 269.552339,107.161246 269.886137,109.173348 C270.219935,111.017776 271.054431,112.526853 272.222724,113.532905 C273.391017,114.538956 275.226906,115.041982 277.563492,115.377332 C279.900078,115.712683 283.238059,115.880358 287.410534,115.880358 C289.246423,115.880358 291.249211,115.880358 293.418898,115.712683 C295.421687,115.545008 297.424475,115.377332 299.260364,115.041982 C301.096253,114.706631 302.765243,114.371281 304.267334,113.70058 C305.769425,113.197554 306.937719,112.526853 307.605315,111.688477 C309.775002,109.341024 312.278487,105.652168 314.948871,100.789586 C317.786155,95.9270045 319.788943,91.9027988 320.790337,88.8846445 L326.798701,88.8846445 Z" id="Fill-5"></path>
                <path d="M426.5,88.8846445 L424.163414,121.916667 L337.876623,121.916667 L337.876623,116.383384 C339.044916,116.215709 340.880806,116.048033 343.217392,115.880358 C345.553978,115.545008 347.222968,115.209657 348.224362,114.874307 C349.726453,114.203606 350.894746,113.197554 351.562343,111.856152 C352.229939,110.51475 352.563737,108.837998 352.563737,106.825895 L352.563737,27.5155068 C352.563737,25.6710792 352.229939,24.162002 351.729242,22.8206001 C351.061646,21.4791982 349.893352,20.3054715 348.224362,19.4670953 C347.056069,18.7963944 345.387079,18.2933686 343.217392,17.6226677 C341.047705,16.9519667 339.211815,16.6166162 337.876623,16.6166162 L337.876623,11.0833333 L384.441448,11.0833333 L384.441448,16.6166162 C382.939357,16.6166162 381.103468,16.9519667 378.766882,17.4549924 C376.430296,17.9580182 374.761306,18.2933686 373.759911,18.6287191 C371.924022,19.2994201 370.755729,20.3054715 370.088133,21.8145487 C369.420537,23.3236258 369.086739,25.0003782 369.086739,26.6771306 L369.086739,101.124937 C369.086739,104.478442 369.253638,107.161246 369.587436,109.173348 C369.921234,111.017776 370.755729,112.526853 371.924022,113.532905 C373.092315,114.538956 374.928205,115.041982 377.264791,115.377332 C379.601377,115.712683 382.939357,115.880358 387.111833,115.880358 C388.947722,115.880358 390.95051,115.880358 393.120197,115.712683 C395.122985,115.545008 397.125773,115.377332 398.961663,115.041982 C400.797552,114.706631 402.466542,114.371281 403.968633,113.70058 C405.470724,113.197554 406.639017,112.526853 407.306613,111.688477 C409.476301,109.341024 411.979786,105.652168 414.65017,100.789586 C417.487453,95.9270045 419.490241,91.9027988 420.491635,88.8846445 L426.5,88.8846445 Z" id="Fill-7"></path>
                <path d="M481.722886,121.916667 L432.038961,121.916667 L432.038961,116.375 C433.372758,116.207071 435.540177,116.039141 438.041046,115.871212 C440.708639,115.703283 442.54261,115.367424 443.709682,114.863636 C445.376927,114.191919 446.710724,113.184343 447.377622,112.008838 C448.211245,110.833333 448.544694,109.15404 448.544694,107.138889 L448.544694,26.8686869 C448.544694,25.0214646 448.211245,23.510101 447.711072,22.334596 C447.210898,21.1590909 445.877101,20.1515152 443.709682,19.3118687 C442.20916,18.6401515 440.208465,18.1363636 437.874321,17.6325758 C435.540177,17.1287879 433.539482,16.7929293 432.038961,16.625 L432.038961,11.0833333 L481.722886,11.0833333 L481.722886,16.625 C480.05564,16.625 478.22167,16.7929293 476.05425,17.1287879 C473.886831,17.4646465 471.886136,17.9684343 470.21889,18.4722222 C468.218195,19.1439394 466.884398,20.1515152 466.2175,21.4949495 C465.550602,22.8383838 465.217152,24.5176768 465.217152,26.1969697 L465.217152,106.467172 C465.217152,108.146465 465.550602,109.657828 466.384224,111.001263 C467.217847,112.344697 468.384919,113.352273 470.21889,114.191919 C471.385962,114.527778 473.053208,115.031566 475.554076,115.535354 C478.054945,116.039141 480.05564,116.375 481.88961,116.375 L481.88961,121.916667 L481.722886,121.916667 Z" id="Fill-9"></path>
                <path d="M560.476162,77.2524876 L544.209022,34.738806 L528.104554,77.2524876 L560.476162,77.2524876 Z M603.746753,121.916667 L559.012119,121.916667 L559.012119,116.457711 C562.916233,116.126866 566.169661,115.630597 568.772403,114.968905 C571.375145,114.141791 572.676517,113.314677 572.676517,112.156716 C572.676517,111.660448 572.676517,111.164179 572.513845,110.502488 C572.351174,109.840796 572.188502,109.179104 572.025831,108.682836 L563.241576,84.0348259 L525.501812,84.0348259 C524.037769,87.6741294 522.899069,90.8171642 522.085712,93.4639303 C521.272355,96.1106965 520.458998,98.5920398 519.645641,100.90796 C518.994956,103.058458 518.506942,104.878109 518.34427,106.366915 C518.018927,107.690299 518.018927,108.848259 518.018927,109.675373 C518.018927,111.660448 519.645641,113.314677 522.736398,114.472637 C525.989826,115.630597 529.568597,116.292289 533.47271,116.457711 L533.47271,121.916667 L492.967532,121.916667 L492.967532,116.457711 C494.268904,116.292289 495.895618,116.126866 497.847674,115.630597 C499.799731,115.134328 501.426445,114.472637 502.727816,113.645522 C504.679873,112.322139 506.306587,110.833333 507.445287,109.344527 C508.583986,107.855721 509.722686,105.705224 510.698715,103.058458 C516.066871,89.3283582 522.085712,73.9440299 528.592568,56.7400498 C535.099424,39.7014925 540.955594,24.3171642 545.998408,11.0833333 L552.017249,11.0833333 L587.804956,105.374378 C588.618313,107.359453 589.43167,109.013682 590.407699,110.171642 C591.383727,111.329602 592.685098,112.652985 594.474484,113.810945 C595.613183,114.472637 597.077226,115.134328 599.029283,115.630597 C600.818668,116.126866 602.445382,116.457711 603.746753,116.457711 L603.746753,121.916667 Z" id="Fill-11"></path>
                <path d="M753.298701,121.916667 L703.988438,121.916667 L703.988438,116.383384 C705.846017,116.383384 708.041337,116.215709 710.91214,115.880358 C713.782943,115.545008 715.640521,115.041982 716.653746,114.538956 C718.342453,113.532905 719.524549,112.359178 720.200032,111.185451 C720.875515,109.844049 721.382127,108.334972 721.382127,106.322869 L721.382127,25.6710792 L720.200032,25.6710792 L682.035239,120.072239 L678.151212,120.072239 L641.843997,23.6589763 L640.830773,23.6589763 L640.830773,89.8906959 C640.830773,96.262355 641.168514,101.124937 642.012868,104.478442 C642.857222,107.831947 644.039317,110.1794 645.728025,111.688477 C646.91012,112.862204 649.274311,113.868255 652.820597,114.874307 C656.366883,115.880358 658.731074,116.383384 659.913169,116.383384 L659.913169,121.916667 L614.824675,121.916667 L614.824675,116.383384 C617.188866,116.215709 619.721927,115.712683 622.254989,115.209657 C624.78805,114.706631 626.8145,113.70058 628.334336,112.694528 C630.191915,111.185451 631.37401,109.005673 632.049493,105.987519 C632.724976,102.969365 633.062718,97.9391074 633.062718,90.8967474 L633.062718,34.0548411 C633.062718,30.7013364 632.724976,28.0185325 631.880622,26.0064297 C631.036269,23.9943268 630.023044,22.1498991 628.503207,20.9761725 C626.8145,19.6347705 624.956921,18.4610439 622.59273,17.7903429 C620.22854,17.119642 617.864349,16.7842915 615.669029,16.6166162 L615.669029,11.0833333 L653.664951,11.0833333 L685.581525,94.2502521 L712.938589,24.6650277 C713.951813,22.1498991 714.796167,19.4670953 715.47165,16.6166162 C716.147133,13.7661372 716.484875,11.9217095 716.653746,11.0833333 L753.129831,11.0833333 L753.129831,16.6166162 C751.609994,16.6166162 749.752415,16.9519667 747.557095,17.2873172 C745.192905,17.6226677 743.673068,18.1256934 742.490972,18.4610439 C740.633394,19.1317448 739.451299,20.1377963 738.944686,21.6468734 C738.269203,23.1559506 737.931462,24.6650277 737.931462,26.3417801 L737.931462,106.322869 C737.931462,108.167297 738.269203,109.676374 738.944686,110.850101 C739.620169,112.023828 740.802265,113.197554 742.490972,114.203606 C743.504197,114.706631 745.192905,115.209657 747.557095,115.712683 C749.921286,116.215709 751.947735,116.383384 753.298701,116.383384 L753.298701,121.916667 Z" id="Fill-13"></path>
                <path d="M834.919074,73.9932971 C837.310344,76.6918478 839.018394,79.559058 840.214028,82.5949275 C841.409663,85.6307971 841.922078,89.3413043 841.922078,93.5577899 C841.922078,103.340036 838.164369,111.604348 830.819755,117.844746 C823.475142,124.253804 814.251673,127.458333 803.320156,127.458333 C798.196007,127.458333 793.242663,126.615036 788.118514,125.097101 C782.994365,123.579167 778.724241,121.723913 775.137336,119.531341 L771.721237,125.265761 L765.401453,125.265761 L764.376623,86.9800725 L770.867212,86.9800725 C772.233652,91.7025362 773.770897,95.9190217 775.478946,99.7981884 C777.186996,103.677355 779.578265,107.219203 782.48195,110.423732 C785.214829,113.459601 788.460124,115.989493 792.217833,117.844746 C795.975542,119.7 800.245666,120.543297 805.028205,120.543297 C808.61511,120.543297 811.860404,120.037319 814.593283,119.194022 C817.326163,118.182065 819.546627,116.83279 821.254677,115.146196 C822.962727,113.459601 824.158361,111.435688 825.012386,109.074457 C825.866411,106.713225 826.208021,104.014674 826.208021,100.978804 C826.208021,96.5936594 825.012386,92.3771739 822.450312,88.4980072 C819.888237,84.6188406 816.130528,81.7516304 811.006379,79.7277174 C807.59028,78.378442 803.661766,76.8605072 799.220836,75.173913 C794.779907,73.4873188 790.851393,71.9693841 787.606099,70.4514493 C781.286315,67.5842391 776.332971,63.8737319 772.746067,59.3199275 C769.159162,54.7661232 767.451113,48.6943841 767.451113,41.442029 C767.451113,37.2255435 768.305138,33.1777174 770.013187,29.6358696 C771.721237,25.9253623 774.283311,22.7208333 777.528606,19.8536232 C780.603095,17.1550725 784.189999,14.9625 788.460124,13.4445652 C792.730248,11.9266304 797.000372,11.0833333 801.612106,11.0833333 C806.736255,11.0833333 811.518794,11.9266304 815.618113,13.4445652 C819.717432,14.9625 823.475142,16.8177536 826.891241,19.0103261 L830.136535,13.6132246 L836.456319,13.6132246 L837.139539,50.5496377 L830.64895,50.5496377 C829.453315,46.3331522 828.086876,42.2853261 826.720436,38.4061594 C825.183191,34.5269928 823.304337,30.9851449 821.083872,27.9492754 C818.863408,24.9134058 815.959723,22.5521739 812.714429,20.6969203 C809.469134,18.8416667 805.369815,17.9983696 800.587276,17.9983696 C795.463127,17.9983696 791.193003,19.5163043 787.776904,22.7208333 C784.189999,25.9253623 782.48195,29.804529 782.48195,34.3583333 C782.48195,39.2494565 783.677585,43.1286232 785.898049,46.3331522 C788.118514,49.5376812 791.534613,52.0675725 795.804737,54.0914855 C799.733251,55.9467391 803.490961,57.4646739 807.24867,58.8139493 C811.006379,60.1632246 814.593283,61.5125 818.180188,63.0304348 C821.425482,64.3797101 824.499971,65.8976449 827.403656,67.5842391 C830.136535,69.6081522 832.69861,71.6320652 834.919074,73.9932971" id="Fill-15"></path>
                <path d="M175.798102,223.540699 C178.184116,226.243166 179.888412,229.114538 181.081419,232.154814 C182.274426,235.19509 182.785714,238.910982 182.785714,243.133587 C182.785714,252.930031 179.036264,261.206338 171.707792,267.455793 C164.379321,273.874153 155.176124,277.083333 144.268631,277.083333 C139.155744,277.083333 134.213287,276.238812 129.1004,274.718674 C123.987512,273.198537 119.726773,271.34059 116.147752,269.144836 L112.739161,274.887579 L106.433267,274.887579 L105.24026,236.715227 L111.716583,236.715227 C113.08002,241.444545 114.613886,245.66715 116.318182,249.551947 C118.022478,253.436744 120.408492,256.983732 123.305794,260.192912 C126.032667,263.233188 129.270829,265.766751 133.02028,267.624698 C136.76973,269.482644 141.03047,270.327165 145.802498,270.327165 C149.381518,270.327165 152.61968,269.820452 155.346553,268.975931 C158.073427,267.962506 160.289011,266.611272 161.993307,264.92223 C163.697602,263.233188 164.890609,261.206338 165.742757,258.841679 C166.594905,256.47702 166.935764,253.774552 166.935764,250.734277 C166.935764,246.342767 165.742757,242.120162 163.186314,238.235365 C160.62987,234.350568 156.88042,231.479197 151.767532,229.452346 C148.358941,228.101113 144.439061,226.580975 140.007892,224.891933 C135.576723,223.202891 131.656843,221.682753 128.418681,220.162615 C122.112787,217.291243 117.17033,213.575351 113.591309,209.014937 C110.012288,204.454523 108.307992,198.373972 108.307992,191.111091 C108.307992,186.888486 109.16014,182.834785 110.864436,179.287796 C112.568731,175.571904 115.125175,172.362724 118.363337,169.491352 C121.431069,166.788885 125.01009,164.59313 129.270829,163.072992 C133.531568,161.552854 137.792308,160.708333 142.393906,160.708333 C147.506793,160.708333 152.278821,161.552854 156.369131,163.072992 C160.459441,164.59313 164.208891,166.451076 167.617483,168.646831 L170.855644,163.241896 L177.161538,163.241896 L177.843257,200.231918 L171.366933,200.231918 C170.173926,196.009313 168.81049,191.955612 167.447053,188.070815 C165.913187,184.186018 164.038462,180.63903 161.822877,177.598754 C159.607293,174.558478 156.70999,172.19382 153.471828,170.335873 C150.233666,168.477927 146.143357,167.633406 141.371329,167.633406 C136.258442,167.633406 131.997702,169.153544 128.589111,172.362724 C125.01009,175.571904 123.305794,179.456701 123.305794,184.017114 C123.305794,188.915336 124.498801,192.800133 126.714386,196.009313 C128.92997,199.218493 132.338561,201.752056 136.599301,203.778907 C140.519181,205.636853 144.268631,207.156991 148.018082,208.508224 C151.767532,209.859458 155.346553,211.210692 158.925574,212.73083 C162.163736,214.082063 165.231469,215.602201 168.128771,217.460148 C171.026074,219.318094 173.582517,221.344944 175.798102,223.540699" id="Fill-17"></path>
                <path d="M272.089467,255.420455 C274.906923,250.718434 277.061448,245.344697 278.38731,239.299242 C279.713171,233.253788 280.376102,226.536616 280.376102,219.147727 C280.376102,211.590909 279.713171,204.537879 278.221577,198.156566 C276.729983,191.775253 274.575458,186.401515 271.758002,181.867424 C268.940546,177.501263 265.294427,173.974747 261.15111,171.455808 C256.84206,168.936869 252.035811,167.761364 246.4009,167.761364 C240.26879,167.761364 234.965344,169.272727 230.656294,172.127525 C226.347244,174.982323 222.866858,178.844697 220.049402,183.546717 C217.397679,188.080808 215.574619,193.454545 214.248758,199.667929 C212.922896,205.881313 212.425698,212.262626 212.425698,219.147727 C212.425698,226.704545 213.088629,233.421717 214.41449,239.467172 C215.740352,245.512626 217.894877,250.886364 220.712333,255.588384 C223.529788,260.122475 227.010175,263.816919 231.153492,266.335859 C235.296809,268.854798 240.434523,270.198232 246.235167,270.198232 C251.704346,270.198232 256.676327,268.854798 261.15111,266.335859 C265.791625,263.64899 269.272011,260.122475 272.089467,255.420455 M283.690756,176.661616 C288.497004,181.699495 292.308856,187.912879 294.960579,195.133838 C297.612302,202.354798 299.103896,210.415404 299.103896,219.147727 C299.103896,227.880051 297.778035,235.940657 294.960579,243.161616 C292.143123,250.382576 288.331271,256.42803 283.35929,261.465909 C278.553042,266.503788 273.083863,270.366162 266.620288,273.05303 C260.322446,275.739899 253.527406,277.083333 246.4009,277.083333 C238.777196,277.083333 231.816423,275.57197 225.352848,272.717172 C218.889273,269.862374 213.420094,265.832071 208.779579,260.626263 C204.139063,255.588384 200.492944,249.375 197.841221,242.15404 C195.189498,234.933081 193.863636,227.208333 193.863636,218.979798 C193.863636,209.911616 195.189498,201.85101 198.006954,194.79798 C200.824409,187.744949 204.636261,181.699495 209.442509,176.493687 C214.248758,171.455808 219.883669,167.425505 226.347244,164.738636 C232.810819,162.051768 239.440127,160.708333 246.4009,160.708333 C253.693138,160.708333 260.488179,162.051768 266.951754,164.906566 C273.415329,167.761364 278.884508,171.623737 283.690756,176.661616" id="Fill-19"></path>
                <path d="M415.422078,171.733508 C413.957933,171.733508 411.843057,172.232009 408.914767,172.896677 C405.986477,173.727511 403.871601,174.392179 402.570139,175.223013 C400.780628,176.552349 399.479166,179.044853 398.828435,182.700525 C398.177704,186.356197 397.852339,191.008871 397.852339,196.658546 L397.852339,277.083333 L391.182345,277.083333 L325.946553,187.187031 L325.946553,243.84995 C325.946553,250.164293 326.271919,255.1493 327.085333,258.472639 C327.898747,261.795977 329.037526,264.288481 330.664354,265.783983 C331.803133,266.947151 334.243375,267.944153 337.822396,268.941154 C341.401417,269.938156 343.841658,270.436657 344.980438,270.436657 L344.980438,275.920165 L300.893407,275.920165 L300.893407,270.436657 C302.194869,270.27049 304.63511,269.771989 307.726083,268.941154 C310.979738,268.11032 312.931932,267.279485 313.745346,266.448651 C315.534856,264.953148 316.673635,262.792979 317.324367,259.801974 C317.975098,256.81097 318.300463,251.825962 318.300463,244.514618 L318.300463,190.676537 C318.300463,188.3502 317.975098,185.857696 317.161684,183.531359 C316.34827,181.205022 315.209491,179.377186 313.908028,178.047851 C312.118518,176.386182 309.678276,174.89068 306.587304,173.727511 C303.496331,172.564343 300.893407,171.899675 299.103896,171.733508 L299.103896,166.25 L329.85094,166.25 L390.368931,249.998126 L390.368931,197.821714 C390.368931,191.507371 390.043566,186.522364 389.230152,183.032859 C388.416738,179.543353 387.277958,177.383183 385.813813,176.220015 C384.349669,175.223013 382.07211,174.226012 378.818454,173.395177 C375.564799,172.398176 373.124557,171.899675 371.49773,171.899675 L371.49773,166.416167 L415.259395,166.416167 L415.259395,171.733508 L415.422078,171.733508 Z" id="Fill-21"></path>
                <path d="M493.647909,255.420455 C496.465365,250.718434 498.61989,245.344697 499.945751,239.299242 C501.271613,233.253788 501.934543,226.536616 501.934543,219.147727 C501.934543,211.590909 501.271613,204.537879 499.780018,198.156566 C498.288424,191.775253 496.133899,186.401515 493.316443,181.867424 C490.498988,177.501263 486.852868,173.974747 482.709551,171.455808 C478.400501,168.936869 473.594253,167.761364 467.959341,167.761364 C461.827232,167.761364 456.523786,169.272727 452.214736,172.127525 C447.905686,174.982323 444.425299,178.844697 441.607843,183.546717 C438.95612,188.080808 437.133061,193.454545 435.807199,199.667929 C434.481338,205.881313 433.984139,212.262626 433.984139,219.147727 C433.984139,226.704545 434.64707,233.421717 435.972932,239.467172 C437.298793,245.512626 439.453318,250.886364 442.270774,255.588384 C445.08823,260.122475 448.568616,263.816919 452.711934,266.335859 C456.855251,268.854798 461.992965,270.198232 467.793609,270.198232 C473.262788,270.198232 478.234768,268.854798 482.709551,266.335859 C487.350066,263.64899 490.830453,260.122475 493.647909,255.420455 M505.249197,176.661616 C510.055445,181.699495 513.867297,187.912879 516.51902,195.133838 C519.170743,202.354798 520.662338,210.415404 520.662338,219.147727 C520.662338,227.880051 519.336476,235.940657 516.51902,243.161616 C513.701565,250.382576 509.889713,256.42803 504.917732,261.465909 C500.111484,266.503788 494.642305,270.366162 488.17873,273.05303 C481.880888,275.739899 475.085847,277.083333 467.959341,277.083333 C460.335638,277.083333 453.374865,275.57197 446.911289,272.717172 C440.447714,269.862374 434.978536,265.832071 430.33802,260.626263 C425.697505,255.588384 422.051386,249.375 419.399663,242.15404 C416.747939,234.933081 415.422078,227.208333 415.422078,218.979798 C415.422078,209.911616 416.747939,201.85101 419.565395,194.79798 C422.382851,187.744949 426.194703,181.699495 431.000951,176.493687 C435.807199,171.455808 441.442111,167.425505 447.905686,164.738636 C454.369261,162.051768 460.998568,160.708333 467.959341,160.708333 C475.25158,160.708333 482.04662,162.051768 488.510195,164.906566 C494.97377,167.761364 500.442949,171.623737 505.249197,176.661616" id="Fill-23"></path>
                <path d="M659.136364,277.083333 L609.826101,277.083333 L609.826101,271.55005 C611.683679,271.55005 613.878999,271.382375 616.749802,271.047025 C619.620605,270.711674 621.478183,270.208649 622.491408,269.705623 C624.180116,268.699571 625.362211,267.525845 626.037694,266.352118 C626.882048,265.010716 627.219789,263.501639 627.219789,261.489536 L627.219789,180.837746 L626.037694,180.837746 L587.872901,275.238906 L583.988874,275.238906 L547.68166,178.825643 L546.668435,178.825643 L546.668435,245.057363 C546.668435,251.429022 547.006177,256.291604 547.850531,259.645108 C548.694884,262.998613 549.87698,265.346067 551.565687,266.855144 C552.747783,268.02887 555.111973,269.034922 558.658259,270.040973 C562.204545,271.047025 564.568736,271.55005 565.750831,271.55005 L565.750831,277.083333 L520.662338,277.083333 L520.662338,271.55005 C523.026528,271.382375 525.55959,270.879349 528.092651,270.376324 C530.625713,269.873298 532.652162,268.867247 534.171999,267.861195 C536.029577,266.352118 537.211672,264.17234 537.887156,261.154186 C538.562639,258.136031 538.90038,253.105774 538.90038,246.063414 L538.90038,189.221508 C538.90038,185.868003 538.562639,183.185199 537.718285,181.173096 C536.873931,179.160993 535.860706,177.316566 534.340869,176.142839 C532.652162,174.801437 530.794583,173.627711 528.430393,172.95701 C526.066202,172.286309 523.702011,171.950958 521.506691,171.783283 L521.506691,166.25 L559.502613,166.25 L591.419188,249.416919 L618.776251,179.831694 C619.789476,177.316566 620.63383,174.633762 621.309313,171.783283 C621.984796,168.932804 622.322537,167.088376 622.491408,166.25 L658.967493,166.25 L658.967493,171.783283 C657.447656,171.783283 655.590078,172.118633 653.394758,172.453984 C651.030567,172.789334 649.51073,173.29236 648.328635,173.627711 C646.471056,174.298411 645.288961,175.304463 644.782349,176.81354 C644.106866,178.322617 643.769124,179.831694 643.769124,181.508447 L643.769124,261.489536 C643.769124,263.333964 644.106866,264.843041 644.782349,266.184443 C645.457832,267.358169 646.639927,268.531896 648.328635,269.537948 C649.341859,270.040973 651.030567,270.543999 653.394758,271.047025 C655.758948,271.55005 657.785398,271.717726 659.136364,271.717726 L659.136364,277.083333 Z" id="Fill-25"></path>
                <path d="M732.247401,232.253731 L716.004113,189.74005 L699.923259,232.253731 L732.247401,232.253731 Z M775.454545,276.91791 L730.785505,276.91791 L730.785505,271.458955 C734.683894,271.128109 737.932551,270.631841 740.531477,269.970149 C743.130403,269.143035 744.429866,268.31592 744.429866,267.15796 C744.429866,266.661692 744.429866,266.165423 744.267433,265.503731 C744.105001,264.84204 743.942568,264.180348 743.780135,263.68408 L734.846327,239.201493 L697.1619,239.201493 C695.700004,242.840796 694.562974,245.983831 693.750809,248.630597 C692.938645,251.277363 692.126481,253.758706 691.314316,256.074627 C690.664585,258.225124 690.177286,260.044776 690.014853,261.533582 C689.689987,262.856965 689.689987,264.014925 689.689987,264.84204 C689.689987,266.827114 691.314316,268.481343 694.400541,269.639303 C697.649198,270.797264 701.222722,271.458955 705.121111,271.624378 L705.121111,277.083333 L664.675325,277.083333 L664.675325,271.624378 C665.974788,271.458955 667.599116,271.293532 669.548311,270.797264 C671.497505,270.300995 673.121834,269.639303 674.421297,268.812189 C676.370492,267.488806 677.99482,266 679.131851,264.511194 C680.268881,263.022388 681.243478,260.871891 682.380508,258.225124 C687.740793,244.495025 693.750809,229.110697 700.248124,211.906716 C706.745439,194.868159 712.593023,179.483831 717.628442,166.25 L723.638458,166.25 L759.373691,260.541045 C760.185855,262.526119 760.99802,264.180348 761.972617,265.338308 C762.947214,266.496269 764.246677,267.819652 766.033439,268.977612 C767.170469,269.639303 768.632365,270.300995 770.581559,270.797264 C772.368321,271.293532 773.99265,271.624378 775.292113,271.624378 L775.292113,276.91791 L775.454545,276.91791 Z" id="Fill-27"></path>
                <polygon id="Fill-29" points="166.168831 321.416667 692.37013 321.416667 692.37013 315.875 166.168831 315.875"></polygon>
                <path d="M260.331169,362.391414 C259.882064,362.055556 259.432959,361.719697 258.834152,361.215909 C257.935942,360.544192 255.989821,359.200758 253.14549,359.200758 C249.852053,359.200758 246.408915,361.04798 244.462794,363.902778 C242.516673,366.757576 242.366971,370.116162 242.366971,371.459596 C242.366971,372.299242 242.516673,374.650253 243.414882,376.833333 C245.061601,381.031566 249.103545,383.550505 253.14549,383.550505 C255.989821,383.550505 257.935942,382.375 260.181467,380.527778 L260.181467,385.901515 C258.834152,386.573232 256.588628,387.916667 252.995788,387.916667 C251.199368,387.916667 247.007722,387.580808 243.115479,383.886364 C241.319059,382.207071 238.175325,378.176768 238.175325,371.291667 C238.175325,367.093434 239.372938,363.063131 241.768164,360.208333 C244.612496,356.849747 248.953843,354.666667 253.14549,354.666667 C255.840119,354.666667 257.786241,355.506313 260.331169,356.681818 L260.331169,362.391414 Z" id="Fill-31"></path>
                <path d="M288.327005,376.344363 L299.34472,376.344363 L294.10679,365.261029 L288.327005,376.344363 Z M310.181818,387.916667 L304.763269,387.916667 L301.331522,380.256127 L286.340203,380.256127 L282.366601,387.753676 L276.948052,387.753676 L294.468027,354.666667 L310.181818,387.916667 Z" id="Fill-32"></path>
                <polygon id="Fill-33" points="326.476669 354.666667 326.476669 383.414062 337.876623 383.414062 337.876623 387.916667 321.25974 387.916667 321.25974 354.666667"></polygon>
                <polygon id="Fill-34" points="360.032468 387.916667 365.571429 387.916667 365.571429 354.666667 360.032468 354.666667"></polygon>
                <polygon id="Fill-35" points="404.344156 354.666667 404.344156 359.342448 392.746956 359.342448 392.746956 367.481771 404.171063 367.481771 404.171063 371.984375 392.573864 371.984375 392.573864 387.916667 387.727273 387.916667 387.727273 354.666667"></polygon>
                <path d="M427.912437,378.971235 C430.226608,381.840525 433.697864,383.528342 437.334418,383.528342 C438.656801,383.528342 441.797462,383.35956 444.772824,380.996616 C447.582889,378.802453 449.401166,375.258037 449.401166,371.544839 C449.401166,369.181895 448.739974,367.325296 448.409378,366.650169 C446.425803,362.093063 442.128058,359.392555 437.334418,359.392555 C434.689651,359.392555 432.044885,360.236464 429.896012,361.924281 C428.573629,362.936971 425.598266,365.975042 425.26767,370.869712 C425.26767,373.739002 426.259458,376.777073 427.912437,378.971235 M425.432968,359.8989 C428.573629,356.523266 433.036672,354.666667 437.499716,354.666667 C442.789249,354.666667 446.591101,357.198393 448.078782,358.379865 C451.880634,361.417936 454.194805,366.312606 454.194805,371.376058 C454.194805,372.55753 454.029507,374.920474 452.872422,377.620981 C450.227655,384.034687 444.27693,387.916667 437.499716,387.916667 C432.210183,387.916667 428.243033,385.216159 426.755352,384.034687 C422.9535,380.827834 420.804627,375.933164 420.969925,370.700931 C420.969925,366.987733 422.622904,362.936971 425.432968,359.8989" id="Fill-36"></path>
                <path d="M481.050374,359.169271 L481.050374,369.559896 L484.743015,369.559896 C486.92503,369.386719 488.603503,369.213542 489.778434,367.308594 C490.114128,366.789062 490.61767,365.576823 490.61767,363.845052 C490.61767,363.325521 490.449823,361.247396 489.107044,360.035156 C488.099961,359.169271 486.757182,359.169271 485.582251,358.996094 L481.050374,358.996094 L481.050374,359.169271 Z M492.799685,387.916667 L482.896694,373.716146 L480.882527,373.716146 L480.882527,387.916667 L476.350649,387.916667 L476.350649,354.666667 L485.750098,354.666667 C487.932113,354.839844 490.114128,355.013021 491.960449,356.398438 C494.310311,358.130208 495.317395,361.247396 495.317395,364.018229 C495.317395,365.403646 494.9817,369.90625 491.289059,372.330729 C490.61767,372.85026 489.946281,373.023438 488.435655,373.542969 C489.946281,375.794271 491.456907,378.045573 492.967532,380.123698 C494.142464,381.855469 495.317395,383.414062 496.492326,384.972656 C497.163715,386.011719 497.835104,387.050781 498.506494,387.916667 L492.799685,387.916667 Z" id="Fill-37"></path>
                <path d="M538.229693,356.852113 L542.818182,356.852113 L542.818182,387.916667 C539.212941,384.482394 535.6077,381.048122 532.002459,377.457746 C529.872089,375.428404 527.74172,373.399061 525.61135,371.213615 C523.480981,369.028169 521.350611,366.842723 519.220241,364.501174 C519.384116,365.906103 519.384116,367.467136 519.54799,368.872066 C519.54799,370.120892 519.54799,371.369718 519.711865,372.774648 L519.711865,386.66784 L515.123377,386.66784 L515.123377,354.666667 C519.54799,358.881455 523.972604,362.940141 528.233344,367.15493 C531.67471,370.589202 535.116076,374.023474 538.557443,377.457746 C538.393568,376.521127 538.393568,375.584507 538.393568,374.647887 C538.393568,373.867371 538.393568,372.930751 538.229693,372.150235 L538.229693,356.852113 Z" id="Fill-38"></path>
                <polygon id="Fill-39" points="564.974026 387.916667 570.512987 387.916667 570.512987 354.666667 564.974026 354.666667"></polygon>
                <path d="M598.508823,376.344363 L609.526539,376.344363 L604.288608,365.261029 L598.508823,376.344363 Z M620.363636,387.916667 L614.945088,387.916667 L611.51334,380.256127 L596.522021,380.256127 L592.548419,387.753676 L587.12987,387.753676 L604.649845,354.666667 L620.363636,387.916667 Z" id="Fill-40"></path>
            </g>
        </g>
    </g>
</svg>