<?xml version="1.0" encoding="UTF-8"?>
<svg width="881px" height="157px" viewBox="0 0 881 157" version="1.1" xmlns="http://www.w3.org/2000/svg" xmlns:xlink="http://www.w3.org/1999/xlink">
    <!-- Generator: Sketch 54.1 (76490) - https://sketchapp.com -->
    <title>atom / logos / westelm / regular / white</title>
    <desc>Created with Sketch.</desc>
    <g id="Symbols" stroke="none" stroke-width="1" fill="none" fill-rule="evenodd">
        <g id="splash" transform="translate(-180.000000, -1265.000000)" fill="#FFFFFF">
            <g id="atom-/-logos-/-westelm-/-regular-/-white" transform="translate(171.000000, 1256.000000)">
                <path d="M216.4287,63.9640575 C226.4808,63.9640575 240.645122,72.0255245 240.645122,85.0134434 C240.645122,94.1945586 239.731294,95.3142067 237.21827,95.3142067 C236.304442,95.3142067 194.496847,95.5381364 190.384624,95.5381364 C187.643143,95.5381364 187.414686,94.1945586 187.414686,91.5074029 C187.414686,80.5348507 197.923699,63.9640575 216.4287,63.9640575 M189.699254,108.526055 L244.30043,108.302126 C248.64111,108.302126 252.067962,106.958548 253.438703,103.151744 C254.809444,98.0013624 256.180184,93.7466993 255.494814,83.6698656 C253.895616,57.2461684 231.278393,49.6325608 217.114071,49.6325608 C186.500859,49.6325608 168.909685,74.9366098 168.909685,108.973915 C168.909685,128.007934 172.564993,137.636908 180.789438,149.281249 C189.013883,160.92559 204.092033,165.404183 216.657157,165.404183 C228.993825,165.404183 249.783394,158.014505 254.124073,153.088053 C255.0379,152.192335 255.0379,149.05732 254.35253,145.922305 C253.895616,143.235149 252.753332,139.428345 250.697221,140.100134 C247.270369,141.443712 236.989813,149.953038 218.484811,150.176968 C186.729315,150.176968 186.272402,120.394326 186.043945,114.348226 C185.815488,108.749985 186.729315,108.526055 189.699254,108.526055" id="Fill-1"></path>
                <path d="M338.814073,101.160971 C329.093618,96.6996365 315.304135,93.7997693 315.304135,80.6388334 C315.304135,69.2624312 326.154876,63.9088302 333.61476,63.9088302 C338.361959,63.9088302 344.691558,65.4702972 351.247214,67.924031 C357.80287,70.6008315 357.576813,68.3701644 360.063441,64.1318969 C361.871897,61.008963 362.550069,58.3321625 361.64584,57.4398956 C357.576813,54.093895 346.500015,49.6325608 333.61476,49.6325608 C310.330879,49.6325608 298.349853,64.1318969 298.349853,80.6388334 C298.349853,96.4765698 311.913279,106.291505 324.572476,112.09124 C337.683788,117.890974 350.7951,122.352308 350.7951,133.282577 C350.7951,140.420712 344.465501,150.904847 331.128132,150.904847 C320.051334,150.904847 308.522422,144.435912 304.679452,142.428312 C302.418881,141.312978 301.514652,143.766712 299.932253,147.112713 C297.897739,151.574047 296.315339,154.696981 297.897739,155.812315 C306.035794,160.719782 319.59922,165.404183 330.902075,165.404183 C351.699328,165.404183 367.975439,152.912447 367.749382,132.836444 C367.975439,111.868173 348.534529,105.622305 338.814073,101.160971" id="Fill-3"></path>
                <path d="M466.514172,146.121625 C463.102026,147.482747 460.144833,149.751283 451.273255,149.751283 C435.122433,149.751283 431.482811,137.047481 431.482811,126.612214 L431.482811,68.7645408 C431.482811,66.4960045 432.392716,65.8154437 435.349909,65.8154437 L466.286695,65.8154437 C467.424077,65.8154437 467.196601,63.7737611 467.196601,58.5561278 C467.196601,53.3384945 467.424077,50.8431047 465.604266,50.8431047 L435.349909,50.8431047 C432.620193,50.8431047 431.482811,49.9356902 431.482811,46.0791787 L431.482811,18.8567442 C431.482811,14.5465254 431.027858,14.5465254 423.976091,16.588208 C416.241894,18.8567442 416.241894,18.8567442 416.241894,22.0326949 L416.241894,46.0791787 C416.241894,49.0282758 415.559465,50.8431047 412.147319,50.8431047 L400.546025,50.8431047 C397.816308,50.8431047 398.498737,54.0190554 398.726214,58.3292742 C398.726214,62.8663466 398.726214,65.8154437 400.546025,65.8154437 L412.602272,65.5885901 C414.877036,65.8154437 416.241894,65.8154437 416.241894,68.3108335 L416.241894,116.857508 C416.241894,144.760504 420.108992,150.885551 426.250854,157.237453 C432.392716,163.589354 441.036818,165.404183 447.17868,165.404183 C453.320542,165.404183 462.192121,162.908793 468.106506,160.413403 C471.063699,159.052282 471.291175,158.144867 470.153794,151.792966 C469.016412,145.667918 468.333983,145.441065 466.514172,146.121625" id="Fill-5"></path>
                <path d="M703.970977,13.6630918 C703.970977,11.1867807 703.519275,9.83606557 701.034914,9.83606557 L676.643009,10.286304 C674.836201,10.286304 675.062052,11.8621383 675.062052,16.8147605 C675.062052,20.6417867 674.836201,22.8929786 676.643009,22.8929786 C686.12875,22.8929786 689.064812,27.1702432 689.064812,33.2484613 L689.064812,160.215684 C689.064812,163.592472 688.38726,163.592472 696.292044,163.592472 C704.422679,163.592472 703.970977,163.817591 703.970977,160.215684 L703.970977,13.6630918 Z" id="Fill-7"></path>
                <path d="M605.074474,63.9640575 C615.126573,63.9640575 629.290895,72.0255245 629.290895,85.0134434 C629.290895,94.1945586 628.377068,95.3142067 625.864043,95.3142067 C624.950216,95.3142067 583.142621,95.5381364 579.030398,95.5381364 C576.288916,95.5381364 576.06046,94.1945586 576.06046,91.5074029 C576.06046,80.5348507 586.569473,63.9640575 605.074474,63.9640575 M578.345028,108.526055 L632.946204,108.302126 C637.286884,108.302126 640.713736,106.958548 642.084476,103.151744 C643.455217,98.0013624 644.825958,93.7466993 644.140588,83.6698656 C642.54139,57.2461684 619.924166,49.6325608 605.759844,49.6325608 C575.146632,49.6325608 557.555458,74.9366098 557.555458,108.973915 C557.555458,128.007934 561.210767,137.636908 569.435212,149.281249 C577.659657,160.92559 592.737806,165.404183 605.302931,165.404183 C617.639598,165.404183 638.429168,158.014505 642.769847,153.088053 C643.683674,152.192335 643.683674,149.05732 642.998304,145.922305 C642.54139,143.235149 641.399106,139.428345 639.342995,140.100134 C635.916143,141.443712 625.635586,149.953038 607.130585,150.176968 C575.375089,150.400897 574.918176,120.394326 574.689719,114.348226 C574.461262,108.749985 575.375089,108.526055 578.345028,108.526055" id="Fill-15"></path>
                <path d="M860.062968,54.3719616 C844.090412,54.3719616 835.647775,62.2227247 829.943291,68.2790277 C827.433318,70.9707179 826.74878,72.316563 825.607883,72.0922555 C824.466986,72.0922555 824.010627,70.7464104 822.869731,68.5033352 C821.728834,66.26026 816.252529,54.8205766 800.051793,54.8205766 C784.307417,54.8205766 774.723883,64.0171849 769.475758,68.9519503 C768.334861,70.0734878 766.281246,70.7464104 766.281246,68.5033352 L766.281246,59.5310345 C766.281246,55.9421142 765.368529,55.9421142 759.435865,55.9421142 C753.731381,55.9421142 751.905946,55.9421142 751.905946,59.5310345 L751.905946,162.03957 C751.905946,164.731261 753.731381,164.731261 759.435865,164.731261 C763.999453,164.731261 766.737605,164.955568 766.737605,162.03957 L766.737605,110.897456 C766.737605,85.7750141 778.831112,69.4005653 794.347309,69.4005653 C810.091686,69.4005653 812.829838,83.0833239 812.829838,93.8500848 L812.829838,162.488185 C812.829838,165.628491 815.567991,164.506953 819.903399,164.506953 C824.238807,164.506953 827.433318,165.404183 827.433318,162.488185 L827.433318,110.897456 C827.433318,85.7750141 839.070466,69.4005653 857.096636,69.4005653 C870.559219,69.4005653 874.438268,80.1673262 874.438268,90.9340871 L874.438268,161.366648 C874.438268,164.955568 875.579165,164.731261 881.511829,164.731261 C887.444493,164.731261 889.269928,164.282646 889.269928,161.366648 L889.269928,87.1208592 C888.813569,66.4845676 876.720062,54.3719616 860.062968,54.3719616" id="Fill-9"></path>
                <path d="M133.54933,53.2291424 C127.398771,53.2291424 125.804181,52.7822299 124.665189,55.2402487 C124.209592,56.1340738 108.947092,133.673395 108.947092,133.673395 C108.263697,135.907957 107.8081,137.025239 106.669107,137.025239 C105.302316,137.025239 104.846719,136.35487 104.391122,134.343764 L82.294668,56.1340738 C81.839071,53.8995112 80.7000785,53.0056862 75.460713,53.0056862 C69.993549,53.0056862 68.8545565,53.4525987 68.171161,56.1340738 L46.758102,134.343764 C46.0747065,136.35487 45.6191095,137.025239 44.2523185,137.025239 C43.113326,137.025239 42.4299305,134.790676 41.9743335,132.332657 L24.889446,54.7933362 C23.978252,51.8884049 22.3836625,52.5587737 16.9164985,52.5587737 C11.4493345,52.5587737 9.62694655,52.7822299 9.85474505,55.9106175 C9.85474505,57.251355 33.3179905,155.572108 34.456983,159.59432 C35.5959755,164.063446 37.190565,165.404183 43.568923,165.404183 C51.0862735,165.404183 51.9974675,162.275796 52.9086615,159.59432 L72.9549295,89.2055997 C73.638325,87.1944934 73.638325,86.0772121 75.2329145,86.0772121 C76.5997055,86.0772121 76.827504,87.1944934 77.5108995,89.2055997 L97.5571674,159.59432 C98.6961599,162.275796 99.6073539,165.404183 106.896906,165.404183 C113.275264,165.404183 114.869853,164.063446 116.008846,159.59432 C116.92004,155.572108 139.927688,56.35753 139.927688,55.2402487 C139.69989,52.7822299 137.649703,53.2291424 133.54933,53.2291424" id="Fill-12"></path>
            </g>
        </g>
    </g>
</svg>