<?xml version="1.0" encoding="UTF-8"?>
<svg width="1125px" height="2458px" viewBox="0 0 1125 2458" version="1.1" xmlns="http://www.w3.org/2000/svg" xmlns:xlink="http://www.w3.org/1999/xlink">
    <!-- Generator: Sketch 54.1 (76490) - https://sketchapp.com -->
    <title>splash</title>
    <desc>Created with Sketch.</desc>
    <defs>
        <linearGradient x1="50.0000935%" y1="0%" x2="50.0000935%" y2="100%" id="linearGradient-1">
            <stop stop-color="#E10098" offset="0%"></stop>
            <stop stop-color="#FF7BD4" offset="46.9254196%"></stop>
            <stop stop-color="#E10098" offset="100%"></stop>
        </linearGradient>
    </defs>
    <g id="Page-2" stroke="none" stroke-width="1" fill="none" fill-rule="evenodd">
        <g id="Artboard" stroke="#979797">
            <g id="splash">
                <g id="Group" stroke="none" transform="translate(0.000000, -47.532912)">
                    <rect id="Rectangle" fill="url(#linearGradient-1)" x="0" y="47.5329119" width="1125" height="2458"></rect>
                    <g id="atomo-/-icono-/-liverpool-/-regular-/-desktop" opacity="0.05" style="mix-blend-mode: overlay;" fill="#FFFFFF">
                        <path d="M1548.00725,1648.12714 L920.227963,1648.12714 C850.464603,1648.12714 827.90748,1603.77584 827.90748,1543.2283 C827.90748,1494.16879 827.543655,0.914094459 827.543655,0.914094459 L606.884058,0.914094459 L606.884058,1753.59096 C606.884058,1827.13314 668.370409,1875.72183 713.666567,1875.72183 L1548.00725,1875.72183 L1548.00725,1648.12714 Z" id="Fill-1"></path>
                        <path d="M1548.00725,1960.42708 L1548.00725,2188.34213 L432.68604,2188.34213 C356.322853,2188.34213 303.442029,2129.34018 303.442029,2053.02345 C304.170164,1963.43834 303.442029,-9.09494702e-13 303.442029,-9.09494702e-13 L523.338882,-9.09494702e-13 L523.338882,1818.80356 C523.338882,1898.60206 556.924121,1960.42708 651.126622,1960.42708 L1548.00725,1960.42708 Z" id="Fill-3"></path>
                        <path d="M0,0.914094459 L221.362913,0.914094459 L221.362913,2119.31759 C221.362913,2196.05769 258.438924,2277.12914 366.751888,2277.12914 L1550.72464,2277.12914 L1550.72464,2504.61882 L262.993716,2504.61882 C116.056112,2504.61882 0,2378.82154 0,2228.73108 L0,0.914094459 Z" id="Fill-6"></path>
                        <path d="M911.231884,0.914094459 L1131.81479,0.914094459 L1131.81479,1244.6637 C1131.81479,1289.8533 1151.61186,1333.06585 1214.36311,1333.06585 L1548.00725,1333.06585 L1548.00725,1561.27334 L1023.29418,1561.27334 C942.562104,1561.27334 911.231884,1508.17556 911.231884,1447.54617 L911.231884,0.914094459 Z" id="Fill-9"></path>
                        <path d="M1216.57646,856.50311 L1844.26479,856.50311 C1914.11911,856.50311 1936.67623,900.95081 1936.67623,961.501384 C1936.67623,1010.37502 1936.9491,2503.70472 1936.9491,2503.70472 L2157.6087,2503.70472 L2157.6087,751.033993 C2157.6087,677.582286 2096.12234,628.896988 2050.82619,628.896988 L1216.48551,628.896988 L1216.57646,856.50311 Z" id="Fill-11"></path>
                        <path d="M1216.48551,543.097033 L1216.48551,315.362588 L2331.81616,315.362588 C2408.08276,315.362588 2461.05072,374.317789 2461.05072,450.574038 C2460.23163,539.994128 2461.05072,2501.87653 2461.05072,2501.87653 L2241.16995,2501.87653 L2241.16995,684.608321 C2241.16995,604.77903 2207.49616,543.097033 2113.48257,543.097033 L1216.48551,543.097033 Z" id="Fill-13"></path>
                        <path d="M2764.49275,2504.61882 L2543.22094,2504.61882 L2543.22094,386.215325 C2543.22094,309.569381 2506.05383,228.497935 2397.74087,228.497935 L1213.76812,228.497935 L1213.76812,0.914094459 L2501.68123,0.914094459 C2648.52774,0.914094459 2764.49275,126.899688 2764.49275,276.895988 L2764.49275,2504.61882 Z" id="Fill-15"></path>
                        <path d="M1854.16667,2504.61882 L1633.49295,2504.61882 L1633.49295,1261.0575 C1633.49295,1215.77376 1613.60507,1172.5612 1551.03544,1172.5612 L1217.3913,1172.5612 L1217.3913,944.259576 L1741.92275,944.259576 C1822.65482,944.259576 1854.16667,997.545646 1854.16667,1058.08088 L1854.16667,2504.61882 Z" id="Fill-18"></path>
                    </g>
                </g>
            </g>
        </g>
    </g>
</svg>